{"glyphs":{"0":{"ha":886,"x_min":83,"x_max":803,"o":"m 443 -19 l 443 -19 q 178 121 274 -19 q 83 510 83 261 l 83 510 q 178 899 83 758 q 443 1039 274 1039 l 443 1039 q 708 899 613 1039 q 803 510 803 758 l 803 510 q 708 121 803 261 q 443 -19 613 -19 z m 443 25 l 443 25 q 676 151 594 25 q 757 510 757 276 l 757 510 q 676 869 757 743 q 443 994 594 994 l 443 994 q 210 869 292 994 q 129 510 129 743 l 129 510 q 210 151 129 276 q 443 25 292 25 z "},"1":{"ha":518,"x_min":72,"x_max":354,"o":"m 343 0 l 321 0 q 310 11 310 0 l 310 11 l 310 943 l 101 790 q 86 793 93 785 l 86 793 l 78 804 q 81 819 72 813 l 81 819 l 315 1014 q 329 1019 324 1019 l 329 1019 l 343 1019 q 354 1008 354 1019 l 354 1008 l 354 11 q 343 0 354 0 l 343 0 z "},"2":{"ha":828,"x_min":79,"x_max":731,"o":"m 719 0 l 100 0 q 89 11 89 0 l 89 11 l 89 17 q 94 31 89 25 l 94 31 l 338 293 q 496 474 436 400 q 585 601 556 547 q 625 699 615 656 q 635 786 635 742 l 635 786 q 568 940 635 885 q 397 994 501 994 l 397 994 q 228 945 297 994 q 128 801 160 896 l 128 801 q 114 794 125 792 l 114 794 l 92 800 q 83 814 79 803 l 83 814 q 199 981 118 922 q 397 1039 281 1039 l 397 1039 q 544 1008 481 1039 q 644 919 608 976 q 681 786 681 863 l 681 786 q 671 694 681 740 q 631 590 661 649 q 537 453 600 532 q 367 261 474 374 l 367 261 l 161 43 l 719 43 q 731 32 731 43 l 731 32 l 731 11 q 719 0 731 0 l 719 0 z "},"3":{"ha":817,"x_min":68,"x_max":733,"o":"m 407 -19 l 407 -19 q 260 12 331 -19 q 140 105 190 43 q 69 260 89 167 l 69 260 q 76 272 68 269 l 76 272 l 96 278 q 110 271 108 281 l 110 271 q 225 84 144 143 q 407 25 306 25 l 407 25 q 552 59 489 25 q 651 151 615 93 q 688 278 688 208 l 688 278 q 615 451 688 385 q 421 518 543 518 l 421 518 l 354 518 q 343 529 343 518 l 343 529 l 343 550 q 354 561 343 561 l 354 561 l 428 561 q 553 590 499 561 q 638 669 607 619 q 668 778 668 718 l 668 778 q 634 890 668 840 q 541 967 600 939 q 406 994 482 994 l 406 994 q 230 942 303 994 q 132 803 157 889 l 132 803 q 118 794 129 790 l 118 794 l 96 801 q 89 815 86 804 l 89 815 q 202 976 117 914 q 406 1039 288 1039 l 406 1039 q 564 1005 494 1039 q 674 912 633 971 q 714 778 714 853 l 714 778 q 663 630 714 696 q 522 540 613 564 l 522 540 q 678 447 622 515 q 733 278 733 378 l 733 278 q 692 131 733 199 q 577 22 650 63 q 407 -19 504 -19 z "},"4":{"ha":904,"x_min":69,"x_max":829,"o":"m 657 0 l 635 0 q 624 11 624 0 l 624 11 l 624 250 l 81 250 q 69 261 69 250 l 69 261 l 69 271 q 74 285 69 279 l 74 285 l 624 1013 q 638 1019 629 1019 l 638 1019 l 657 1019 q 668 1008 668 1019 l 668 1008 l 668 293 l 818 293 q 829 282 829 293 l 829 282 l 829 261 q 818 250 829 250 l 818 250 l 668 250 l 668 11 q 657 0 668 0 l 657 0 z m 624 942 l 133 293 l 624 293 l 624 942 z "},"5":{"ha":807,"x_min":78,"x_max":738,"o":"m 418 -19 l 418 -19 q 269 13 339 -19 q 150 106 200 44 q 81 258 100 168 l 81 258 q 88 272 78 269 l 88 272 l 107 278 q 121 271 119 281 l 121 271 q 236 84 156 143 q 418 25 317 25 l 418 25 q 559 60 497 25 q 656 160 621 94 q 692 317 692 226 l 692 317 q 619 528 692 450 q 421 606 546 606 l 421 606 q 265 572 336 606 q 143 472 193 538 l 143 472 q 128 468 136 465 l 128 468 l 122 471 q 114 483 114 475 l 114 483 l 163 1008 q 175 1019 163 1019 l 175 1019 l 682 1019 q 693 1008 693 1019 l 693 1008 l 693 988 q 682 976 693 976 l 682 976 l 203 976 l 163 550 q 276 624 210 597 q 421 650 343 650 l 421 650 q 588 608 517 650 q 699 492 660 567 q 738 317 738 418 l 738 317 q 697 141 738 217 q 585 23 657 65 q 418 -19 513 -19 z "},"6":{"ha":789,"x_min":69,"x_max":725,"o":"m 397 -19 l 397 -19 q 225 22 299 -19 q 110 140 151 64 q 69 315 69 215 l 69 315 q 85 433 69 376 q 135 553 100 489 q 232 700 171 617 l 232 700 l 460 1013 q 474 1019 464 1019 l 474 1019 l 500 1019 q 507 1006 517 1019 l 507 1006 l 192 574 q 282 630 231 610 q 397 650 333 650 l 397 650 q 569 608 496 650 q 684 492 643 567 q 725 315 725 417 l 725 315 q 684 140 725 215 q 569 22 643 64 q 397 -19 496 -19 z m 397 25 l 397 25 q 603 103 528 25 q 679 315 679 181 l 679 315 q 603 528 679 451 q 397 606 528 606 l 397 606 q 191 528 267 606 q 115 315 115 451 l 115 315 q 191 103 115 181 q 397 25 267 25 z "},"7":{"ha":803,"x_min":69,"x_max":725,"o":"m 279 0 l 254 0 q 246 13 242 0 l 246 13 l 671 976 l 81 976 q 69 988 69 976 l 69 988 l 69 1008 q 81 1019 69 1019 l 81 1019 l 714 1019 q 725 1008 725 1019 l 725 1008 l 725 1001 q 722 988 725 996 l 722 988 l 293 8 q 279 0 290 0 l 279 0 z "},"8":{"ha":846,"x_min":76,"x_max":769,"o":"m 424 -19 l 424 -19 q 245 17 324 -19 q 122 120 167 54 q 76 274 76 186 l 76 274 q 138 444 76 372 q 303 540 200 515 l 303 540 q 164 628 217 564 q 111 778 111 693 l 111 778 q 152 912 111 853 q 264 1005 193 971 q 424 1039 335 1039 l 424 1039 q 584 1005 514 1039 q 695 912 654 971 q 736 778 736 853 l 736 778 q 683 628 736 693 q 543 540 631 564 l 543 540 q 707 444 644 515 q 769 274 769 372 l 769 274 q 724 122 769 188 q 601 18 679 56 q 424 -19 522 -19 z m 424 561 l 424 561 q 562 589 501 561 q 656 666 622 617 q 690 778 690 715 l 690 778 q 656 890 690 840 q 562 967 622 939 q 424 994 501 994 l 424 994 q 285 967 346 994 q 191 890 225 939 q 157 778 157 840 l 157 778 q 191 666 157 715 q 285 589 225 617 q 424 561 346 561 z m 424 25 l 424 25 q 578 57 511 25 q 685 145 646 89 q 724 272 724 201 l 724 272 q 685 399 724 344 q 578 485 646 454 q 424 517 511 517 l 424 517 q 268 485 336 517 q 161 399 200 454 q 122 272 122 344 l 122 272 q 161 145 122 201 q 268 57 200 89 q 424 25 336 25 z "},"9":{"ha":789,"x_min":64,"x_max":719,"o":"m 301 0 l 275 0 q 268 14 258 0 l 268 14 l 590 439 q 502 388 551 406 q 392 369 453 369 l 392 369 q 219 411 293 369 q 105 528 146 453 q 64 704 64 604 l 64 704 q 105 881 64 806 q 219 997 146 956 q 392 1039 293 1039 l 392 1039 q 564 997 490 1039 q 678 881 638 956 q 719 704 719 806 l 719 704 q 704 586 719 643 q 653 466 689 529 q 553 319 617 403 l 553 319 l 315 7 q 301 0 311 0 l 301 0 z m 392 414 l 392 414 q 598 492 522 414 q 674 704 674 569 l 674 704 q 598 917 674 839 q 392 994 522 994 l 392 994 q 185 917 261 994 q 110 704 110 839 l 110 704 q 185 492 110 569 q 392 414 261 414 z "},"\u0000":{"ha":0,"x_min":null,"x_max":null,"o":""},"\r":{"ha":314,"x_min":null,"x_max":null,"o":""}," ":{"ha":314,"x_min":null,"x_max":null,"o":""},".":{"ha":269,"x_min":86,"x_max":183,"o":"m 135 -14 l 135 -14 q 100 -1 114 -14 q 86 35 86 13 l 86 35 q 100 69 86 56 q 135 82 114 82 l 135 82 q 169 69 156 82 q 183 35 183 56 l 183 35 q 169 -1 183 13 q 135 -14 156 -14 z "},":":{"ha":269,"x_min":86,"x_max":183,"o":"m 135 596 l 135 596 q 100 609 114 596 q 86 644 86 622 l 86 644 q 100 678 86 665 q 135 692 114 692 l 135 692 q 169 678 156 692 q 183 644 183 665 l 183 644 q 169 609 183 622 q 135 596 156 596 z m 135 -14 l 135 -14 q 100 -1 114 -14 q 86 35 86 13 l 86 35 q 100 69 86 56 q 135 82 114 82 l 135 82 q 169 69 156 82 q 183 35 183 56 l 183 35 q 169 -1 183 13 q 135 -14 156 -14 z "},",":{"ha":269,"x_min":67,"x_max":183,"o":"m 90 -199 l 76 -199 q 69 -189 67 -199 l 69 -189 l 122 -12 q 86 35 86 -6 l 86 35 q 101 69 86 56 q 135 82 115 82 l 135 82 q 169 69 156 82 q 183 35 183 56 l 183 35 q 178 -1 183 17 q 165 -39 174 -19 l 165 -39 l 100 -192 q 90 -199 97 -199 l 90 -199 z "},";":{"ha":269,"x_min":67,"x_max":183,"o":"m 90 -199 l 76 -199 q 69 -189 67 -199 l 69 -189 l 122 -12 q 86 35 86 -6 l 86 35 q 101 69 86 56 q 135 82 115 82 l 135 82 q 169 69 156 82 q 183 35 183 56 l 183 35 q 178 -1 183 17 q 165 -39 174 -19 l 165 -39 l 100 -192 q 90 -199 97 -199 l 90 -199 z m 135 596 l 135 596 q 100 609 114 596 q 86 644 86 622 l 86 644 q 100 678 86 665 q 135 692 114 692 l 135 692 q 169 678 156 692 q 183 644 183 665 l 183 644 q 169 609 183 622 q 135 596 156 596 z "},"?":{"ha":721,"x_min":53,"x_max":654,"o":"m 314 169 l 297 169 q 286 181 286 169 l 286 181 l 285 501 q 296 513 285 513 l 296 513 l 357 513 q 542 585 476 513 q 608 772 608 658 l 608 772 q 580 885 608 835 q 497 965 551 936 q 368 994 443 994 l 368 994 q 97 786 167 994 l 97 786 q 82 779 93 775 l 82 779 l 63 786 q 56 800 53 790 l 56 800 q 173 977 92 915 q 368 1039 254 1039 l 368 1039 q 519 1003 454 1039 q 619 906 583 967 q 654 772 654 846 l 654 772 q 617 618 654 686 q 514 511 581 550 q 354 472 447 472 l 354 472 l 326 472 l 325 181 q 314 169 325 169 l 314 169 z m 306 -14 l 306 -14 q 271 -1 285 -14 q 257 35 257 13 l 257 35 q 271 69 257 56 q 306 82 285 82 l 306 82 q 340 69 326 82 q 354 35 354 56 l 354 35 q 340 -1 354 13 q 306 -14 326 -14 z "},"!":{"ha":269,"x_min":86,"x_max":183,"o":"m 143 265 l 126 265 q 115 276 115 265 l 115 276 l 111 1008 q 122 1019 111 1019 l 122 1019 l 147 1019 q 158 1008 158 1019 l 158 1008 l 154 276 q 143 265 154 265 l 143 265 z m 135 -14 l 135 -14 q 100 -1 114 -14 q 86 35 86 13 l 86 35 q 100 69 86 56 q 135 82 114 82 l 135 82 q 169 69 156 82 q 183 35 183 56 l 183 35 q 169 -1 183 13 q 135 -14 156 -14 z "},"'":{"ha":269,"x_min":113,"x_max":157,"o":"m 143 764 l 126 764 q 118 772 118 764 l 118 772 l 113 1011 q 121 1019 113 1019 l 121 1019 l 149 1019 q 157 1011 157 1019 l 157 1011 l 151 772 q 143 764 151 764 l 143 764 z "},"\"":{"ha":439,"x_min":113,"x_max":326,"o":"m 143 764 l 126 764 q 118 772 118 764 l 118 772 l 113 1011 q 121 1019 113 1019 l 121 1019 l 149 1019 q 157 1011 157 1019 l 157 1011 l 151 772 q 143 764 151 764 l 143 764 z m 313 764 l 296 764 q 288 772 288 764 l 288 772 l 282 1011 q 290 1019 282 1019 l 290 1019 l 318 1019 q 326 1011 326 1019 l 326 1011 l 321 772 q 313 764 321 764 l 313 764 z "},"‘":{"ha":269,"x_min":75,"x_max":188,"o":"m 124 750 l 124 750 q 88 763 101 750 q 75 797 75 776 l 75 797 q 79 824 75 808 q 99 878 83 839 l 99 878 l 153 1013 q 163 1019 156 1019 l 163 1019 l 178 1019 q 185 1010 188 1019 l 185 1010 l 131 843 q 171 797 171 839 l 171 797 q 158 763 171 776 q 124 750 144 750 z "},"’":{"ha":269,"x_min":82,"x_max":194,"o":"m 107 764 l 92 764 q 85 774 82 764 l 85 774 l 139 940 q 99 986 99 944 l 99 986 q 112 1020 99 1007 q 146 1033 125 1033 l 146 1033 q 181 1020 168 1033 q 194 986 194 1007 l 194 986 q 190 960 194 976 q 171 906 186 944 l 171 906 l 117 771 q 107 764 114 764 l 107 764 z "},"“":{"ha":439,"x_min":75,"x_max":357,"o":"m 124 750 l 124 750 q 88 763 101 750 q 75 797 75 776 l 75 797 q 79 824 75 808 q 99 878 83 839 l 99 878 l 153 1013 q 163 1019 156 1019 l 163 1019 l 178 1019 q 185 1010 188 1019 l 185 1010 l 131 843 q 171 797 171 839 l 171 797 q 158 763 171 776 q 124 750 144 750 z m 293 750 l 293 750 q 258 763 271 750 q 244 797 244 776 l 244 797 q 249 824 244 808 q 268 878 253 839 l 268 878 l 322 1013 q 332 1019 325 1019 l 332 1019 l 347 1019 q 354 1010 357 1019 l 354 1010 l 300 843 q 340 797 340 839 l 340 797 q 327 763 340 776 q 293 750 314 750 z "},"”":{"ha":438,"x_min":82,"x_max":363,"o":"m 107 764 l 92 764 q 85 774 82 764 l 85 774 l 139 940 q 99 986 99 944 l 99 986 q 112 1020 99 1007 q 146 1033 125 1033 l 146 1033 q 181 1020 168 1033 q 194 986 194 1007 l 194 986 q 190 960 194 976 q 171 906 186 944 l 171 906 l 117 771 q 107 764 114 764 l 107 764 z m 275 764 l 260 764 q 253 774 250 764 l 253 774 l 307 940 q 267 986 267 944 l 267 986 q 280 1020 267 1007 q 314 1033 293 1033 l 314 1033 q 349 1020 336 1033 q 363 986 363 1007 l 363 986 q 358 960 363 976 q 339 906 354 944 l 339 906 l 285 771 q 275 764 282 764 l 275 764 z "},"…":{"ha":1389,"x_min":165,"x_max":1224,"o":"m 214 -14 l 214 -14 q 179 -1 193 -14 q 165 35 165 13 l 165 35 q 179 69 165 56 q 214 82 193 82 l 214 82 q 249 69 235 82 q 263 35 263 56 l 263 35 q 249 -1 263 13 q 214 -14 235 -14 z m 694 -14 l 694 -14 q 660 -1 674 -14 q 646 35 646 13 l 646 35 q 660 69 646 56 q 694 82 674 82 l 694 82 q 729 69 715 82 q 743 35 743 56 l 743 35 q 729 -1 743 13 q 694 -14 715 -14 z m 1175 -14 l 1175 -14 q 1140 -1 1154 -14 q 1126 35 1126 13 l 1126 35 q 1140 69 1126 56 q 1175 82 1154 82 l 1175 82 q 1210 69 1196 82 q 1224 35 1224 56 l 1224 35 q 1210 -1 1224 13 q 1175 -14 1196 -14 z "}," ":{"ha":314,"x_min":null,"x_max":null,"o":""}," ":{"ha":694,"x_min":null,"x_max":null,"o":""}," ":{"ha":1389,"x_min":null,"x_max":null,"o":""}," ":{"ha":694,"x_min":null,"x_max":null,"o":""}," ":{"ha":1389,"x_min":null,"x_max":null,"o":""}," ":{"ha":463,"x_min":null,"x_max":null,"o":""}," ":{"ha":347,"x_min":null,"x_max":null,"o":""}," ":{"ha":232,"x_min":null,"x_max":null,"o":""}," ":{"ha":833,"x_min":null,"x_max":null,"o":""}," ":{"ha":269,"x_min":null,"x_max":null,"o":""}," ":{"ha":278,"x_min":null,"x_max":null,"o":""}," ":{"ha":231,"x_min":null,"x_max":null,"o":""},"​":{"ha":0,"x_min":null,"x_max":null,"o":""},"﻿":{"ha":0,"x_min":null,"x_max":null,"o":""},"⁄":{"ha":139,"x_min":-272,"x_max":411,"o":"m -239 0 l -262 0 q -270 4 -268 0 q -269 14 -272 8 l -269 14 l 365 1013 q 378 1019 371 1019 l 378 1019 l 401 1019 q 410 1015 408 1019 q 408 1006 411 1011 l 408 1006 l -226 7 q -239 0 -232 0 l -239 0 z "},"%":{"ha":1222,"x_min":51,"x_max":1171,"o":"m 303 0 l 279 0 q 272 4 274 0 q 272 14 269 8 l 272 14 l 907 1013 q 919 1019 913 1019 l 919 1019 l 943 1019 q 951 1015 950 1019 q 950 1006 953 1011 l 950 1006 l 315 7 q 303 0 310 0 l 303 0 z m 951 -14 l 951 -14 q 791 64 850 -14 q 732 279 732 142 l 732 279 q 791 494 732 417 q 951 572 850 572 l 951 572 q 1113 494 1054 572 q 1171 279 1171 417 l 1171 279 q 1113 64 1171 142 q 951 -14 1054 -14 z m 951 28 l 951 28 q 1082 93 1036 28 q 1128 279 1128 158 l 1128 279 q 1082 465 1128 400 q 951 531 1036 531 l 951 531 q 821 465 867 531 q 775 279 775 400 l 775 279 q 821 93 775 158 q 951 28 867 28 z m 271 447 l 271 447 q 110 525 169 447 q 51 740 51 603 l 51 740 q 110 956 51 878 q 271 1033 169 1033 l 271 1033 q 432 956 374 1033 q 490 740 490 878 l 490 740 q 432 525 490 603 q 271 447 374 447 z m 271 489 l 271 489 q 401 554 356 489 q 447 740 447 619 l 447 740 q 401 926 447 861 q 271 992 356 992 l 271 992 q 140 926 186 992 q 94 740 94 861 l 94 740 q 140 554 94 619 q 271 489 186 489 z "},"‰":{"ha":1764,"x_min":51,"x_max":1713,"o":"m 303 0 l 279 0 q 272 4 274 0 q 272 14 269 8 l 272 14 l 907 1013 q 919 1019 913 1019 l 919 1019 l 943 1019 q 951 1015 950 1019 q 950 1006 953 1011 l 950 1006 l 315 7 q 303 0 310 0 l 303 0 z m 951 -14 l 951 -14 q 791 64 850 -14 q 732 279 732 142 l 732 279 q 791 494 732 417 q 951 572 850 572 l 951 572 q 1113 494 1054 572 q 1171 279 1171 417 l 1171 279 q 1113 64 1171 142 q 951 -14 1054 -14 z m 951 28 l 951 28 q 1082 93 1036 28 q 1128 279 1128 158 l 1128 279 q 1082 465 1128 400 q 951 531 1036 531 l 951 531 q 821 465 867 531 q 775 279 775 400 l 775 279 q 821 93 775 158 q 951 28 867 28 z m 1493 -14 l 1493 -14 q 1333 64 1392 -14 q 1274 279 1274 142 l 1274 279 q 1333 494 1274 417 q 1493 572 1392 572 l 1493 572 q 1654 494 1596 572 q 1713 279 1713 417 l 1713 279 q 1654 64 1713 142 q 1493 -14 1596 -14 z m 1493 28 l 1493 28 q 1624 93 1578 28 q 1669 279 1669 158 l 1669 279 q 1624 465 1669 400 q 1493 531 1578 531 l 1493 531 q 1363 465 1408 531 q 1317 279 1317 400 l 1317 279 q 1363 93 1317 158 q 1493 28 1408 28 z m 271 447 l 271 447 q 110 525 169 447 q 51 740 51 603 l 51 740 q 110 956 51 878 q 271 1033 169 1033 l 271 1033 q 432 956 374 1033 q 490 740 490 878 l 490 740 q 432 525 490 603 q 271 447 374 447 z m 271 489 l 271 489 q 401 554 356 489 q 447 740 447 619 l 447 740 q 401 926 447 861 q 271 992 356 992 l 271 992 q 140 926 186 992 q 94 740 94 861 l 94 740 q 140 554 94 619 q 271 489 186 489 z "},"½":{"ha":1222,"x_min":151,"x_max":1146,"o":"m 282 0 l 258 0 q 251 4 253 0 q 251 14 249 8 l 251 14 l 886 1013 q 899 1019 892 1019 l 899 1019 l 922 1019 q 931 1015 929 1019 q 929 1006 932 1011 l 929 1006 l 294 7 q 282 0 289 0 l 282 0 z m 1138 0 l 761 0 q 753 8 753 0 l 753 8 l 753 15 q 757 25 753 21 l 757 25 l 904 171 q 1013 289 978 244 q 1060 365 1049 333 q 1072 426 1072 396 l 1072 426 q 1038 502 1072 474 q 947 531 1003 531 l 947 531 q 855 506 894 531 q 796 431 815 482 l 796 431 q 785 425 793 422 l 785 425 l 761 431 q 756 442 753 432 l 756 442 q 828 538 776 503 q 947 572 879 572 l 947 572 q 1066 532 1017 572 q 1115 426 1115 492 l 1115 426 q 1103 358 1115 393 q 1053 273 1092 322 q 933 144 1014 224 l 933 144 l 826 40 l 1138 40 q 1146 32 1146 40 l 1146 32 l 1146 8 q 1138 0 1146 0 l 1138 0 z m 326 461 l 301 461 q 293 469 293 461 l 293 469 l 293 957 l 169 896 q 158 899 161 892 l 158 899 l 154 907 q 157 918 151 914 l 157 918 l 300 1017 q 310 1019 304 1019 l 310 1019 l 326 1019 q 335 1011 335 1019 l 335 1011 l 335 469 q 326 461 335 461 l 326 461 z "},"¼":{"ha":1222,"x_min":151,"x_max":1167,"o":"m 317 0 l 293 0 q 285 4 288 0 q 286 14 283 8 l 286 14 l 921 1013 q 933 1019 926 1019 l 933 1019 l 957 1019 q 965 1015 964 1019 q 964 1006 967 1011 l 964 1006 l 329 7 q 317 0 324 0 l 317 0 z m 1063 0 l 1038 0 q 1029 8 1029 0 l 1029 8 l 1029 131 l 740 131 q 732 139 732 131 l 732 139 l 732 146 q 736 156 732 150 l 736 156 l 1036 553 q 1047 558 1042 558 l 1047 558 l 1063 558 q 1071 550 1071 558 l 1071 550 l 1071 171 l 1158 171 q 1167 163 1167 171 l 1167 163 l 1167 139 q 1158 131 1167 131 l 1158 131 l 1071 131 l 1071 8 q 1063 0 1071 0 l 1063 0 z m 1029 482 l 794 171 l 1029 171 l 1029 482 z m 326 461 l 301 461 q 293 469 293 461 l 293 469 l 293 957 l 169 896 q 158 899 161 892 l 158 899 l 154 907 q 157 918 151 914 l 157 918 l 300 1017 q 310 1019 304 1019 l 310 1019 l 326 1019 q 335 1011 335 1019 l 335 1011 l 335 469 q 326 461 335 461 l 326 461 z "},"¾":{"ha":1222,"x_min":63,"x_max":1167,"o":"m 358 0 l 335 0 q 327 4 329 0 q 328 14 325 8 l 328 14 l 963 1013 q 975 1019 968 1019 l 975 1019 l 999 1019 q 1007 1015 1006 1019 q 1006 1006 1008 1011 l 1006 1006 l 371 7 q 358 0 365 0 l 358 0 z m 1063 0 l 1038 0 q 1029 8 1029 0 l 1029 8 l 1029 131 l 740 131 q 732 139 732 131 l 732 139 l 732 146 q 736 156 732 150 l 736 156 l 1036 553 q 1047 558 1042 558 l 1047 558 l 1063 558 q 1071 550 1071 558 l 1071 550 l 1071 171 l 1158 171 q 1167 163 1167 171 l 1167 163 l 1167 139 q 1158 131 1167 131 l 1158 131 l 1071 131 l 1071 8 q 1063 0 1071 0 l 1063 0 z m 1029 482 l 794 171 l 1029 171 l 1029 482 z m 269 447 l 269 447 q 147 483 204 447 q 67 579 90 518 l 67 579 q 72 593 63 589 l 72 593 l 88 600 q 103 594 99 606 l 103 594 q 166 519 122 550 q 269 489 210 489 l 269 489 q 386 524 340 489 q 432 615 432 560 l 432 615 q 392 700 432 665 q 279 735 351 735 l 279 735 l 249 735 q 238 746 238 735 l 238 746 l 238 764 q 249 775 238 775 l 249 775 l 279 775 q 378 807 343 775 q 414 882 414 839 l 414 882 q 376 963 414 935 q 276 992 339 992 l 276 992 q 181 966 221 992 q 126 896 142 940 l 126 896 q 113 889 122 888 l 113 889 l 94 893 q 86 907 83 896 l 86 907 q 156 999 106 964 q 276 1033 207 1033 l 276 1033 q 407 992 357 1033 q 457 888 457 950 l 457 888 q 431 808 457 844 q 358 756 406 772 l 358 756 q 443 703 411 740 q 475 613 475 667 l 475 613 q 447 526 475 564 q 373 468 419 489 q 269 447 326 447 z "},"$":{"ha":776,"x_min":64,"x_max":699,"o":"m 414 -82 l 393 -82 q 382 -71 382 -82 l 382 -71 l 382 43 q 65 275 136 51 l 65 275 q 74 289 64 285 l 74 289 l 94 296 q 108 288 106 300 l 108 288 q 211 138 142 183 q 382 88 281 92 l 382 88 l 382 511 l 346 521 q 169 613 229 553 q 110 750 110 672 l 110 750 q 144 861 110 813 q 240 938 179 910 q 382 969 301 967 l 382 969 l 382 1083 q 393 1094 382 1094 l 393 1094 l 414 1094 q 425 1083 425 1094 l 425 1083 l 425 968 q 601 909 531 963 q 697 760 671 856 l 697 760 q 689 746 699 750 l 689 746 l 668 739 q 654 747 657 736 l 654 747 q 571 874 628 832 q 425 922 514 917 l 425 922 l 425 543 l 444 538 q 635 436 572 503 q 697 275 697 369 l 697 275 q 663 159 697 210 q 567 78 628 108 q 425 43 506 47 l 425 43 l 425 -71 q 414 -82 425 -82 l 414 -82 z m 360 561 l 360 561 l 382 556 l 382 924 q 219 872 282 921 q 157 750 157 824 l 157 750 q 360 561 157 618 z m 429 499 l 429 499 l 425 500 l 425 89 q 588 145 526 94 q 650 274 650 196 l 650 274 q 594 414 650 358 q 429 499 538 469 z "},"¢":{"ha":722,"x_min":63,"x_max":669,"o":"m 394 0 l 374 0 q 363 11 363 0 l 363 11 l 363 143 q 203 197 271 150 q 99 322 136 244 q 63 497 63 399 l 63 497 q 99 673 63 596 q 203 797 136 750 q 363 851 271 844 l 363 851 l 363 1008 q 374 1019 363 1019 l 374 1019 l 394 1019 q 406 1008 406 1019 l 406 1008 l 406 853 q 660 678 594 846 l 660 678 q 653 664 664 668 l 653 664 l 635 658 q 621 665 625 654 l 621 665 q 406 811 564 806 l 406 811 l 406 183 q 544 228 489 188 q 628 338 599 268 l 628 338 q 642 343 632 347 l 642 343 l 660 336 q 665 321 669 332 l 665 321 q 564 190 631 235 q 406 142 497 144 l 406 142 l 406 11 q 394 0 406 0 l 394 0 z m 106 497 l 106 497 q 134 349 106 418 q 219 236 163 281 q 363 185 276 192 l 363 185 l 363 810 q 218 758 275 803 q 133 644 161 713 q 106 497 106 575 z "},"£":{"ha":844,"x_min":100,"x_max":764,"o":"m 744 0 l 125 0 q 114 11 114 0 l 114 11 l 114 18 q 118 32 114 24 l 118 32 q 176 145 156 96 q 206 244 197 194 q 214 361 214 294 l 214 361 q 211 411 214 385 q 203 465 208 438 l 203 465 l 111 465 q 100 476 100 465 l 100 476 l 100 497 q 111 508 100 508 l 111 508 l 196 508 q 174 627 185 567 q 164 742 164 688 l 164 742 q 241 958 164 878 q 450 1039 318 1039 l 450 1039 q 647 980 565 1039 q 761 814 728 921 l 761 814 q 753 800 764 803 l 753 800 l 731 794 q 717 801 719 792 l 717 801 q 617 945 686 896 q 451 994 549 994 l 451 994 q 274 928 338 994 q 210 742 210 861 l 210 742 q 221 628 210 688 q 243 508 232 568 l 243 508 l 515 508 q 526 497 526 508 l 526 497 l 526 476 q 515 465 526 465 l 515 465 l 250 465 q 257 413 254 439 q 260 361 260 386 l 260 361 q 252 254 260 303 q 225 156 244 206 q 169 43 206 107 l 169 43 l 744 43 q 756 32 756 43 l 756 32 l 756 11 q 744 0 756 0 l 744 0 z "},"¥":{"ha":896,"x_min":40,"x_max":856,"o":"m 426 224 l 182 224 q 171 235 171 224 l 171 235 l 171 256 q 182 267 171 267 l 182 267 l 426 267 l 426 410 l 182 410 q 171 421 171 410 l 171 421 l 171 442 q 182 453 171 453 l 182 453 l 401 453 l 43 1006 q 43 1015 40 1011 q 51 1019 46 1019 l 51 1019 l 74 1019 q 86 1013 83 1019 l 86 1013 l 449 454 l 811 1013 q 824 1019 815 1019 l 824 1019 l 844 1019 q 853 1015 851 1019 q 853 1006 856 1011 l 853 1006 l 494 453 l 715 453 q 726 442 726 453 l 726 442 l 726 421 q 715 410 726 410 l 715 410 l 471 410 l 471 267 l 715 267 q 726 256 726 267 l 726 256 l 726 235 q 715 224 726 224 l 715 224 l 471 224 l 471 11 q 460 0 471 0 l 460 0 l 438 0 q 426 11 426 0 l 426 11 l 426 224 z "},"€":{"ha":964,"x_min":56,"x_max":875,"o":"m 174 390 l 67 390 q 56 401 56 390 l 56 401 l 56 422 q 67 433 56 433 l 67 433 l 169 433 q 167 510 167 471 l 167 510 q 169 586 167 549 l 169 586 l 67 586 q 56 597 56 586 l 56 597 l 56 618 q 67 629 56 629 l 67 629 l 174 629 q 290 931 196 824 q 533 1039 385 1039 l 533 1039 q 728 981 649 1039 q 850 819 807 922 l 850 819 q 844 806 854 811 l 844 806 l 824 797 q 810 803 815 793 l 810 803 q 703 944 769 893 q 533 994 636 994 l 533 994 q 322 900 403 994 q 219 629 240 806 l 219 629 l 600 629 q 611 618 611 629 l 611 618 l 611 597 q 600 586 611 586 l 600 586 l 215 586 q 213 510 213 550 l 213 510 q 215 433 213 469 l 215 433 l 600 433 q 611 422 611 433 l 611 422 l 611 401 q 600 390 611 390 l 600 390 l 219 390 q 322 119 240 214 q 533 25 403 25 l 533 25 q 832 267 757 25 l 832 267 q 846 274 835 278 l 846 274 l 865 267 q 872 251 875 263 l 872 251 q 746 53 832 125 q 533 -19 660 -19 l 533 -19 q 290 88 385 -19 q 174 390 196 196 l 174 390 z "},"¤":{"ha":742,"x_min":56,"x_max":686,"o":"m 78 243 l 78 243 l 64 257 q 64 274 56 265 l 64 274 l 167 372 q 115 536 115 439 l 115 536 q 167 700 115 633 l 167 700 l 64 799 q 64 815 56 807 l 64 815 l 78 829 q 94 829 86 838 l 94 829 l 196 732 q 272 778 228 761 q 371 794 317 794 l 371 794 q 469 778 425 794 q 546 732 514 761 l 546 732 l 647 831 q 664 829 656 839 l 664 829 l 678 815 q 678 799 686 807 l 678 799 l 575 700 q 626 536 626 633 l 626 536 q 575 372 626 439 l 575 372 l 678 274 q 678 257 686 265 l 678 257 l 664 243 q 647 243 656 235 l 647 243 l 546 340 q 469 294 514 311 q 371 278 425 278 l 371 278 q 272 294 317 278 q 196 340 228 311 l 196 340 l 94 243 q 78 243 86 235 z m 371 321 l 371 321 q 523 380 464 321 q 582 536 582 439 l 582 536 q 523 692 582 633 q 371 751 464 751 l 371 751 q 219 692 278 751 q 160 536 160 633 l 160 536 q 219 380 160 439 q 371 321 278 321 z "},"^":{"ha":833,"x_min":117,"x_max":717,"o":"m 150 488 l 128 488 q 119 492 122 488 q 119 501 117 496 l 119 501 l 396 1011 q 408 1019 400 1019 l 408 1019 l 425 1019 q 438 1011 433 1019 l 438 1011 l 714 501 q 715 492 717 496 q 706 488 713 488 l 706 488 l 685 488 q 672 496 676 488 l 672 496 l 417 969 l 163 496 q 150 488 158 488 l 150 488 z "},"+":{"ha":833,"x_min":100,"x_max":733,"o":"m 428 135 l 406 135 q 394 146 394 135 l 394 146 l 394 432 l 111 432 q 100 443 100 432 l 100 443 l 100 463 q 111 474 100 474 l 111 474 l 394 474 l 394 760 q 406 771 394 771 l 406 771 l 428 771 q 439 760 439 771 l 439 760 l 439 474 l 722 474 q 733 463 733 474 l 733 463 l 733 443 q 722 432 733 432 l 722 432 l 439 432 l 439 146 q 428 135 439 135 l 428 135 z "},"−":{"ha":833,"x_min":100,"x_max":733,"o":"m 722 432 l 111 432 q 100 443 100 432 l 100 443 l 100 463 q 111 474 100 474 l 111 474 l 722 474 q 733 463 733 474 l 733 463 l 733 443 q 722 432 733 432 l 722 432 z "},"=":{"ha":833,"x_min":100,"x_max":733,"o":"m 722 264 l 111 264 q 100 275 100 264 l 100 275 l 100 294 q 111 306 100 306 l 111 306 l 722 306 q 733 294 733 306 l 733 294 l 733 275 q 722 264 733 264 l 722 264 z m 722 621 l 111 621 q 100 632 100 621 l 100 632 l 100 651 q 111 663 100 663 l 111 663 l 722 663 q 733 651 733 663 l 733 651 l 733 632 q 722 621 733 621 l 722 621 z "},"÷":{"ha":833,"x_min":100,"x_max":733,"o":"m 410 665 l 410 665 q 377 678 390 665 q 364 711 364 690 l 364 711 q 377 743 364 731 q 410 756 390 756 l 410 756 q 442 743 429 756 q 456 711 456 731 l 456 711 q 442 678 456 690 q 410 665 429 665 z m 722 432 l 111 432 q 100 443 100 432 l 100 443 l 100 463 q 111 474 100 474 l 111 474 l 722 474 q 733 463 733 474 l 733 463 l 733 443 q 722 432 733 432 l 722 432 z m 410 139 l 410 139 q 377 151 390 139 q 364 185 364 164 l 364 185 q 377 217 364 204 q 410 229 390 229 l 410 229 q 442 217 429 229 q 456 185 456 204 l 456 185 q 442 151 456 164 q 410 139 429 139 z "},"<":{"ha":833,"x_min":122,"x_max":696,"o":"m 696 182 l 696 160 q 683 151 696 144 l 683 151 l 131 432 q 122 444 122 436 l 122 444 l 122 461 q 131 474 122 469 l 131 474 l 683 754 q 696 746 696 761 l 696 746 l 696 725 q 688 713 696 717 l 688 713 l 172 454 l 688 194 q 696 182 696 190 l 696 182 z "},">":{"ha":833,"x_min":138,"x_max":711,"o":"m 703 432 l 150 151 q 138 160 138 144 l 138 160 l 138 181 q 146 193 138 189 l 146 193 l 661 453 l 146 711 q 138 724 138 715 l 138 724 l 138 746 q 150 754 138 761 l 150 754 l 703 474 q 711 461 711 469 l 711 461 l 711 444 q 703 432 711 436 l 703 432 z "},"~":{"ha":833,"x_min":79,"x_max":754,"o":"m 574 318 l 574 318 q 478 342 513 318 q 424 400 444 365 q 385 469 403 435 q 339 526 367 503 q 261 550 311 550 l 261 550 q 161 499 200 550 q 117 358 122 447 l 117 358 q 106 347 117 347 l 106 347 l 90 347 q 79 358 79 347 l 79 358 q 131 526 82 464 q 260 589 179 589 l 260 589 q 355 565 321 589 q 410 508 389 542 q 449 439 431 474 q 494 381 467 404 q 572 357 522 357 l 572 357 q 672 408 633 357 q 717 549 711 460 l 717 549 q 728 560 717 560 l 728 560 l 743 560 q 754 544 754 560 l 754 544 q 701 380 750 442 q 574 318 653 318 z "},"¬":{"ha":833,"x_min":88,"x_max":660,"o":"m 649 222 l 626 222 q 615 233 615 222 l 615 233 l 615 501 l 99 501 q 88 513 88 501 l 88 513 l 88 532 q 99 543 88 543 l 99 543 l 649 543 q 660 532 660 543 l 660 532 l 660 233 q 649 222 660 222 l 649 222 z "},"×":{"ha":833,"x_min":144,"x_max":689,"o":"m 167 190 l 167 190 l 154 204 q 154 219 147 213 l 154 219 l 389 456 l 151 692 q 151 707 144 699 l 151 707 l 165 722 q 174 726 168 726 q 182 722 179 725 l 182 722 l 419 486 l 653 721 q 661 724 656 724 q 669 721 667 725 l 669 721 l 682 707 q 681 690 689 699 l 681 690 l 449 457 l 682 224 q 682 208 689 217 l 682 208 l 668 193 q 660 190 665 189 q 651 193 654 190 l 651 193 l 418 426 l 183 190 q 175 187 181 188 q 167 190 169 186 z "},"_":{"ha":781,"x_min":69,"x_max":711,"o":"m 700 -164 l 79 -164 q 69 -153 69 -164 l 69 -153 l 69 -133 q 79 -122 69 -122 l 79 -122 l 700 -122 q 711 -133 711 -122 l 711 -133 l 711 -153 q 700 -164 711 -164 l 700 -164 z "},"§":{"ha":693,"x_min":93,"x_max":599,"o":"m 307 -147 l 307 -147 q 184 -109 239 -147 q 97 10 129 -71 l 97 10 q 104 25 93 21 l 104 25 l 124 32 q 138 25 133 35 l 138 25 q 208 -74 167 -43 q 307 -106 249 -106 l 307 -106 q 422 -65 381 -106 q 463 38 463 -24 l 463 38 q 450 123 463 83 q 417 200 438 163 l 417 200 q 350 193 385 193 l 350 193 q 218 226 274 193 q 132 316 163 258 q 101 446 101 374 l 101 446 q 135 582 101 522 q 229 672 169 642 l 229 672 q 190 758 204 714 q 176 854 176 803 l 176 854 q 230 985 176 931 q 375 1039 283 1039 l 375 1039 q 499 1001 444 1039 q 585 882 553 964 l 585 882 q 578 867 589 871 l 578 867 l 558 860 q 544 867 549 857 l 544 867 q 474 966 515 935 q 375 997 433 997 l 375 997 q 261 956 303 997 q 219 854 219 915 l 219 854 q 233 766 219 807 q 268 688 246 725 l 268 688 q 350 699 306 699 l 350 699 q 482 666 426 699 q 568 576 538 633 q 599 446 599 519 l 599 446 q 561 303 599 365 q 456 214 524 242 l 456 214 q 493 130 481 172 q 506 38 506 88 l 506 38 q 452 -93 506 -39 q 307 -147 399 -147 z m 350 235 l 350 235 q 498 293 440 235 q 556 446 556 351 l 556 446 q 498 599 556 540 q 350 657 440 657 l 350 657 q 203 599 261 657 q 144 446 144 540 l 144 446 q 203 293 144 351 q 350 235 261 235 z "},"¶":{"ha":763,"x_min":83,"x_max":610,"o":"m 474 -125 l 454 -125 q 443 -114 443 -125 l 443 -114 l 443 361 l 404 361 q 242 399 315 361 q 126 511 169 438 q 83 690 83 585 l 83 690 q 126 870 83 797 q 242 981 169 943 q 404 1019 315 1019 l 404 1019 l 599 1019 q 610 1008 610 1019 l 610 1008 l 610 -114 q 599 -125 610 -125 l 599 -125 l 579 -125 q 568 -114 568 -125 l 568 -114 l 568 979 l 485 979 l 485 -114 q 474 -125 485 -125 l 474 -125 z "},"#":{"ha":1039,"x_min":89,"x_max":951,"o":"m 229 0 l 211 0 q 201 13 199 0 l 201 13 l 271 296 l 100 296 q 90 308 89 296 l 90 308 l 96 328 q 108 338 99 338 l 108 338 l 282 338 l 367 682 l 196 682 q 186 694 185 682 l 186 694 l 192 714 q 204 724 194 724 l 204 724 l 376 724 l 447 1010 q 460 1019 450 1019 l 460 1019 l 479 1019 q 489 1007 492 1019 l 489 1007 l 418 724 l 725 724 l 796 1010 q 808 1019 799 1019 l 808 1019 l 828 1019 q 838 1007 840 1019 l 838 1007 l 767 724 l 939 724 q 949 711 951 724 l 949 711 l 943 692 q 931 682 940 682 l 931 682 l 757 682 l 672 338 l 843 338 q 853 325 856 338 l 853 325 l 847 306 q 835 296 844 296 l 835 296 l 661 296 l 590 10 q 578 0 588 0 l 578 0 l 560 0 q 550 13 547 0 l 550 13 l 619 296 l 313 296 l 242 10 q 229 0 239 0 l 229 0 z m 408 682 l 324 338 l 631 338 l 715 682 l 408 682 z "},"|":{"ha":344,"x_min":151,"x_max":193,"o":"m 182 -153 l 163 -153 q 151 -142 151 -153 l 151 -142 l 151 1031 q 163 1042 151 1042 l 163 1042 l 182 1042 q 193 1031 193 1042 l 193 1031 l 193 -142 q 182 -153 193 -153 l 182 -153 z "},"†":{"ha":647,"x_min":83,"x_max":564,"o":"m 336 -125 l 311 -125 q 303 -117 303 -125 l 303 -117 l 303 664 l 92 664 q 83 672 83 664 l 83 672 l 83 696 q 92 704 83 704 l 92 704 l 303 704 l 303 1011 q 311 1019 303 1019 l 311 1019 l 336 1019 q 344 1011 344 1019 l 344 1011 l 344 704 l 556 704 q 564 696 564 704 l 564 696 l 564 672 q 556 664 564 664 l 556 664 l 344 664 l 344 -117 q 336 -125 344 -125 l 336 -125 z "},"‡":{"ha":647,"x_min":83,"x_max":564,"o":"m 303 204 l 92 204 q 83 213 83 204 l 83 213 l 83 236 q 92 244 83 244 l 92 244 l 303 244 l 303 664 l 92 664 q 83 672 83 664 l 83 672 l 83 696 q 92 704 83 704 l 92 704 l 303 704 l 303 1011 q 311 1019 303 1019 l 311 1019 l 336 1019 q 344 1011 344 1019 l 344 1011 l 344 704 l 556 704 q 564 696 564 704 l 564 696 l 564 672 q 556 664 564 664 l 556 664 l 344 664 l 344 244 l 556 244 q 564 236 564 244 l 564 236 l 564 213 q 556 204 564 204 l 556 204 l 344 204 l 344 -117 q 336 -125 344 -125 l 336 -125 l 311 -125 q 303 -117 303 -125 l 303 -117 l 303 204 z "},"&":{"ha":935,"x_min":94,"x_max":879,"o":"m 435 -19 l 435 -19 q 247 22 322 -19 q 133 131 171 63 q 94 278 94 199 l 94 278 q 143 447 94 378 q 293 540 192 515 l 293 540 q 167 631 210 565 q 125 778 125 696 l 125 778 q 165 912 125 853 q 272 1005 204 971 q 425 1039 340 1039 l 425 1039 q 619 976 538 1039 q 728 815 701 914 l 728 815 q 721 801 729 806 l 721 801 l 700 794 q 686 803 690 793 l 686 803 q 590 943 658 892 q 425 994 522 994 l 425 994 q 295 967 353 994 q 204 890 238 939 q 171 778 171 840 l 171 778 q 197 669 171 718 q 273 590 224 619 q 389 561 322 561 l 389 561 l 449 561 q 460 550 460 561 l 460 550 l 460 529 q 449 518 460 518 l 449 518 l 396 518 q 207 451 274 518 q 140 278 140 385 l 140 278 q 174 151 140 208 q 272 59 207 93 q 435 25 338 25 l 435 25 q 673 101 596 25 q 750 292 750 176 l 750 292 q 731 403 750 351 q 682 487 713 454 q 615 519 651 519 l 615 519 l 603 519 q 592 531 592 519 l 592 531 l 592 550 q 603 561 592 561 l 603 561 l 868 561 q 879 550 879 561 l 879 550 l 879 529 q 868 518 879 518 l 868 518 l 694 518 q 767 432 739 489 q 796 292 796 375 l 796 292 q 757 135 796 206 q 638 22 718 64 q 435 -19 558 -19 z "},"*":{"ha":631,"x_min":69,"x_max":563,"o":"m 140 540 l 140 540 l 131 547 q 129 563 122 553 l 129 563 l 275 746 l 78 861 q 74 876 69 868 l 74 876 l 81 888 q 96 892 86 897 l 96 892 l 292 789 l 297 1008 q 308 1019 297 1019 l 308 1019 l 322 1019 q 333 1008 333 1019 l 333 1008 l 338 789 l 535 892 q 550 888 544 897 l 550 888 l 557 876 q 553 861 563 865 l 553 861 l 356 746 l 501 563 q 500 547 508 553 l 500 547 l 490 540 q 475 542 481 533 l 475 542 l 315 721 l 156 542 q 140 540 150 533 z "},"°":{"ha":547,"x_min":83,"x_max":464,"o":"m 274 653 l 274 653 q 135 708 186 653 q 83 846 83 763 l 83 846 q 135 984 83 929 q 274 1039 186 1039 l 274 1039 q 413 984 361 1039 q 464 846 464 929 l 464 846 q 413 708 464 763 q 274 653 361 653 z m 274 690 l 274 690 q 383 733 340 690 q 425 846 425 775 l 425 846 q 383 959 425 917 q 274 1001 340 1001 l 274 1001 q 165 959 207 1001 q 122 846 122 917 l 122 846 q 165 733 122 775 q 274 690 207 690 z "},"-":{"ha":654,"x_min":115,"x_max":539,"o":"m 528 432 l 126 432 q 115 443 115 432 l 115 443 l 115 463 q 126 474 115 474 l 126 474 l 528 474 q 539 463 539 474 l 539 463 l 539 443 q 528 432 539 432 l 528 432 z "},"‐":{"ha":654,"x_min":115,"x_max":539,"o":"m 528 432 l 126 432 q 115 443 115 432 l 115 443 l 115 463 q 126 474 115 474 l 126 474 l 528 474 q 539 463 539 474 l 539 463 l 539 443 q 528 432 539 432 l 528 432 z "},"‑":{"ha":654,"x_min":115,"x_max":539,"o":"m 528 432 l 126 432 q 115 443 115 432 l 115 443 l 115 463 q 126 474 115 474 l 126 474 l 528 474 q 539 463 539 474 l 539 463 l 539 443 q 528 432 539 432 l 528 432 z "},"­":{"ha":654,"x_min":115,"x_max":539,"o":"m 528 432 l 126 432 q 115 443 115 432 l 115 443 l 115 463 q 126 474 115 474 l 126 474 l 528 474 q 539 463 539 474 l 539 463 l 539 443 q 528 432 539 432 l 528 432 z "},"–":{"ha":694,"x_min":0,"x_max":694,"o":"m 683 432 l 11 432 q 0 443 0 432 l 0 443 l 0 463 q 11 474 0 474 l 11 474 l 683 474 q 694 463 694 474 l 694 463 l 694 443 q 683 432 694 432 l 683 432 z "},"—":{"ha":1389,"x_min":0,"x_max":1389,"o":"m 1378 432 l 11 432 q 0 443 0 432 l 0 443 l 0 463 q 11 474 0 474 l 11 474 l 1378 474 q 1389 463 1389 474 l 1389 463 l 1389 443 q 1378 432 1389 432 l 1378 432 z "},"(":{"ha":493,"x_min":81,"x_max":465,"o":"m 454 -208 l 454 -208 q 176 -38 272 -197 q 81 444 81 121 l 81 444 q 176 928 81 768 q 454 1097 272 1088 l 454 1097 q 465 1086 465 1097 l 465 1086 l 465 1067 q 454 1056 465 1056 l 454 1056 q 208 901 290 1047 q 126 444 126 754 l 126 444 q 208 -12 126 135 q 454 -167 290 -158 l 454 -167 q 465 -178 465 -167 l 465 -178 l 465 -197 q 454 -208 465 -208 z "},")":{"ha":493,"x_min":28,"x_max":413,"o":"m 39 -208 l 39 -208 q 28 -197 28 -208 l 28 -197 l 28 -178 q 39 -167 28 -167 l 39 -167 q 285 -12 203 -158 q 367 444 367 135 l 367 444 q 285 901 367 754 q 39 1056 203 1047 l 39 1056 q 28 1067 28 1056 l 28 1067 l 28 1086 q 39 1097 28 1097 l 39 1097 q 317 928 221 1088 q 413 444 413 768 l 413 444 q 317 -38 413 121 q 39 -208 221 -197 z "},"/":{"ha":503,"x_min":71,"x_max":433,"o":"m 104 -153 l 82 -153 q 72 -140 71 -153 l 72 -140 l 386 1032 q 399 1042 389 1042 l 399 1042 l 421 1042 q 431 1029 433 1042 l 431 1029 l 117 -143 q 104 -153 114 -153 l 104 -153 z "},"\\":{"ha":503,"x_min":71,"x_max":433,"o":"m 421 -153 l 421 -153 l 399 -153 q 386 -143 389 -153 l 386 -143 l 72 1029 q 82 1042 71 1042 l 82 1042 l 104 1042 q 117 1032 114 1042 l 117 1032 l 431 -140 q 421 -153 433 -153 z "},"[":{"ha":379,"x_min":94,"x_max":351,"o":"m 340 -208 l 106 -208 q 94 -197 94 -208 l 94 -197 l 94 1086 q 106 1097 94 1097 l 106 1097 l 340 1097 q 351 1086 351 1097 l 351 1086 l 351 1068 q 340 1057 351 1057 l 340 1057 l 136 1057 l 136 -168 l 340 -168 q 351 -179 351 -168 l 351 -179 l 351 -197 q 340 -208 351 -208 l 340 -208 z "},"]":{"ha":379,"x_min":28,"x_max":285,"o":"m 274 -208 l 39 -208 q 28 -197 28 -208 l 28 -197 l 28 -179 q 39 -168 28 -168 l 39 -168 l 243 -168 l 243 1057 l 39 1057 q 28 1068 28 1057 l 28 1068 l 28 1086 q 39 1097 28 1097 l 39 1097 l 274 1097 q 285 1086 285 1097 l 285 1086 l 285 -197 q 274 -208 285 -208 l 274 -208 z "},"{":{"ha":519,"x_min":89,"x_max":492,"o":"m 481 -208 l 474 -208 q 335 -184 396 -208 q 240 -107 274 -160 q 206 33 206 -54 l 206 33 l 206 339 q 192 404 206 385 q 144 424 179 424 l 144 424 l 100 424 q 89 435 89 424 l 89 435 l 89 454 q 100 465 89 465 l 100 465 l 144 465 q 192 485 179 465 q 206 550 206 504 l 206 550 l 206 856 q 240 996 206 943 q 335 1073 274 1049 q 474 1097 396 1097 l 474 1097 l 481 1097 q 492 1086 492 1097 l 492 1086 l 492 1067 q 481 1056 492 1056 l 481 1056 l 471 1056 q 301 1002 356 1056 q 247 840 247 949 l 247 840 l 247 542 q 237 476 247 503 q 206 444 226 449 l 206 444 q 238 410 228 438 q 247 347 247 383 l 247 347 l 247 49 q 301 -113 247 -60 q 471 -167 356 -167 l 471 -167 l 481 -167 q 492 -178 492 -167 l 492 -178 l 492 -197 q 481 -208 492 -208 l 481 -208 z "},"}":{"ha":519,"x_min":28,"x_max":431,"o":"m 46 -208 l 39 -208 q 28 -197 28 -208 l 28 -197 l 28 -178 q 39 -167 28 -167 l 39 -167 l 49 -167 q 218 -113 164 -167 q 272 49 272 -60 l 272 49 l 272 347 q 283 413 272 386 q 314 444 293 440 l 314 444 q 282 478 292 451 q 272 542 272 506 l 272 542 l 272 840 q 218 1002 272 949 q 49 1056 164 1056 l 49 1056 l 39 1056 q 28 1067 28 1056 l 28 1067 l 28 1086 q 39 1097 28 1097 l 39 1097 l 46 1097 q 185 1073 125 1097 q 280 996 246 1049 q 314 856 314 943 l 314 856 l 314 550 q 327 485 314 504 q 375 465 340 465 l 375 465 l 419 465 q 431 454 431 465 l 431 454 l 431 435 q 419 424 431 424 l 419 424 l 375 424 q 327 404 340 424 q 314 339 314 385 l 314 339 l 314 33 q 280 -107 314 -54 q 185 -184 246 -160 q 46 -208 125 -208 l 46 -208 z "},"•":{"ha":561,"x_min":151,"x_max":410,"o":"m 281 299 l 281 299 q 190 337 228 299 q 151 428 151 375 l 151 428 q 190 519 151 481 q 281 557 228 557 l 281 557 q 372 519 333 557 q 410 428 410 481 l 410 428 q 372 337 410 375 q 281 299 333 299 z "},"@":{"ha":1294,"x_min":83,"x_max":1211,"o":"m 649 -251 l 649 -251 q 347 -182 474 -251 q 152 15 221 -112 q 83 311 83 142 l 83 311 q 153 608 83 482 q 352 804 224 735 q 656 874 481 874 l 656 874 q 953 804 829 874 q 1144 609 1078 735 q 1211 313 1211 483 l 1211 313 q 1185 147 1211 221 q 1113 28 1160 72 q 1004 -15 1067 -15 l 1004 -15 q 874 135 874 -15 l 874 135 q 776 28 843 69 q 629 -14 708 -14 l 629 -14 q 472 26 540 -14 q 366 138 404 67 q 328 304 328 210 l 328 304 q 366 470 328 399 q 472 582 404 542 q 629 622 540 622 l 629 622 q 780 578 711 622 q 878 465 849 535 l 878 465 l 883 599 q 894 610 883 610 l 894 610 l 906 610 q 917 599 917 610 l 917 599 l 917 142 q 938 53 917 81 q 1004 26 958 26 l 1004 26 q 1091 65 1054 26 q 1148 167 1128 103 q 1168 311 1168 232 l 1168 311 q 1102 599 1168 483 q 920 773 1036 714 q 656 832 804 832 l 656 832 q 385 773 506 832 q 196 599 265 714 q 126 311 126 483 l 126 311 q 194 24 126 139 q 381 -151 263 -92 q 649 -210 499 -210 l 649 -210 q 710 -207 682 -210 q 768 -199 739 -204 l 768 -199 q 781 -208 781 -197 l 781 -208 l 781 -228 q 772 -239 781 -236 l 772 -239 q 649 -251 718 -251 z m 626 28 l 626 28 q 812 103 742 28 q 882 304 882 179 l 882 304 q 812 505 882 429 q 626 581 742 581 l 626 581 q 442 505 513 581 q 371 304 371 429 l 371 304 q 442 103 371 179 q 626 28 513 28 z "},"·":{"ha":428,"x_min":165,"x_max":263,"o":"m 214 404 l 214 404 q 179 417 193 404 q 165 453 165 431 l 165 453 q 179 487 165 474 q 214 500 193 500 l 214 500 q 249 487 235 500 q 263 453 263 474 l 263 453 q 249 417 263 431 q 214 404 235 404 z "},"A":{"ha":954,"x_min":38,"x_max":917,"o":"m 72 0 l 51 0 q 43 13 38 0 l 43 13 l 446 1011 q 460 1019 449 1019 l 460 1019 l 494 1019 q 508 1011 506 1019 l 508 1011 l 911 13 q 903 0 917 0 l 903 0 l 879 0 q 865 8 868 0 l 865 8 l 746 307 l 207 307 l 86 8 q 72 0 83 0 l 72 0 z m 476 978 l 224 350 l 728 350 l 476 978 z "},"B":{"ha":911,"x_min":139,"x_max":829,"o":"m 488 0 l 150 0 q 139 11 139 0 l 139 11 l 139 1008 q 150 1019 139 1019 l 150 1019 l 465 1019 q 644 985 575 1019 q 748 892 714 950 q 782 764 782 835 l 782 764 q 617 532 782 588 l 617 532 q 829 276 829 483 l 829 276 q 794 135 829 199 q 683 36 758 72 q 488 0 608 0 l 488 0 z m 458 976 l 458 976 l 183 976 l 183 551 l 474 551 q 678 610 618 551 q 738 764 738 669 l 738 764 q 671 917 738 858 q 458 976 604 976 z m 481 508 l 481 508 l 183 508 l 183 43 l 481 43 q 712 105 640 43 q 783 276 783 167 l 783 276 q 712 447 783 386 q 481 508 640 508 z "},"C":{"ha":1057,"x_min":83,"x_max":983,"o":"m 553 -19 l 553 -19 q 306 44 413 -19 q 142 227 200 108 q 83 510 83 346 l 83 510 q 142 792 83 674 q 306 975 200 911 q 553 1039 413 1039 l 553 1039 q 808 969 704 1039 q 963 775 911 900 l 963 775 q 956 761 967 765 l 956 761 l 933 753 q 919 758 925 749 l 919 758 q 781 934 869 874 q 553 994 693 994 l 553 994 q 319 931 414 994 q 177 758 225 868 q 129 510 129 649 l 129 510 q 177 261 129 371 q 319 88 225 151 q 553 25 414 25 l 553 25 q 796 97 697 25 q 939 299 894 169 l 939 299 q 954 306 943 310 l 954 306 l 975 299 q 982 285 983 294 l 982 285 q 828 65 935 150 q 553 -19 721 -19 z "},"D":{"ha":1015,"x_min":139,"x_max":932,"o":"m 419 0 l 150 0 q 139 11 139 0 l 139 11 l 139 1008 q 150 1019 139 1019 l 150 1019 l 419 1019 q 710 955 597 1019 q 878 776 824 890 q 932 510 932 661 l 932 510 q 878 244 932 360 q 710 65 824 129 q 419 0 597 0 l 419 0 z m 413 976 l 413 976 l 183 976 l 183 43 l 413 43 q 770 169 654 43 q 886 510 886 294 l 886 510 q 770 851 886 725 q 413 976 654 976 z "},"E":{"ha":817,"x_min":139,"x_max":761,"o":"m 750 0 l 150 0 q 139 11 139 0 l 139 11 l 139 1008 q 150 1019 139 1019 l 150 1019 l 735 1019 q 746 1008 746 1019 l 746 1008 l 746 988 q 735 976 746 976 l 735 976 l 183 976 l 183 551 l 690 551 q 701 540 701 551 l 701 540 l 701 519 q 690 508 701 508 l 690 508 l 183 508 l 183 43 l 750 43 q 761 32 761 43 l 761 32 l 761 11 q 750 0 761 0 l 750 0 z "},"F":{"ha":783,"x_min":139,"x_max":731,"o":"m 172 0 l 150 0 q 139 11 139 0 l 139 11 l 139 1008 q 150 1019 139 1019 l 150 1019 l 719 1019 q 731 1008 731 1019 l 731 1008 l 731 988 q 719 976 731 976 l 719 976 l 183 976 l 183 538 l 663 538 q 674 526 674 538 l 674 526 l 674 506 q 663 494 674 494 l 663 494 l 183 494 l 183 11 q 172 0 183 0 l 172 0 z "},"G":{"ha":1083,"x_min":83,"x_max":1000,"o":"m 558 -19 l 558 -19 q 310 45 418 -19 q 143 228 203 110 q 83 510 83 347 l 83 510 q 143 792 83 674 q 310 974 203 910 q 558 1039 418 1039 l 558 1039 q 813 969 710 1039 q 968 775 917 900 l 968 775 q 961 761 972 765 l 961 761 l 939 753 q 925 758 931 749 l 925 758 q 787 934 875 874 q 558 994 699 994 l 558 994 q 324 931 419 994 q 178 758 228 867 q 129 510 129 649 l 129 510 q 178 261 129 371 q 324 88 228 151 q 558 25 419 25 l 558 25 q 770 74 682 25 q 906 212 858 122 q 954 424 954 301 l 954 424 l 954 453 l 585 453 q 574 464 574 453 l 574 464 l 574 485 q 585 496 574 496 l 585 496 l 989 496 q 1000 485 1000 496 l 1000 485 l 1000 426 q 950 199 1000 300 q 802 39 900 97 q 558 -19 704 -19 z "},"H":{"ha":1028,"x_min":139,"x_max":889,"o":"m 172 0 l 150 0 q 139 11 139 0 l 139 11 l 139 1008 q 150 1019 139 1019 l 150 1019 l 172 1019 q 183 1008 183 1019 l 183 1008 l 183 549 l 844 549 l 844 1008 q 856 1019 844 1019 l 856 1019 l 878 1019 q 889 1008 889 1019 l 889 1008 l 889 11 q 878 0 889 0 l 878 0 l 856 0 q 844 11 844 0 l 844 11 l 844 506 l 183 506 l 183 11 q 172 0 183 0 l 172 0 z "},"I":{"ha":322,"x_min":139,"x_max":183,"o":"m 172 0 l 150 0 q 139 11 139 0 l 139 11 l 139 1008 q 150 1019 139 1019 l 150 1019 l 172 1019 q 183 1008 183 1019 l 183 1008 l 183 11 q 172 0 183 0 l 172 0 z "},"J":{"ha":631,"x_min":19,"x_max":510,"o":"m 261 -19 l 261 -19 q 117 22 179 -19 q 22 165 54 64 l 22 165 q 31 179 19 175 l 31 179 l 50 186 q 64 178 60 189 l 64 178 q 138 63 90 101 q 261 25 185 25 l 261 25 q 392 61 349 25 q 451 162 436 97 q 465 314 465 226 l 465 314 l 465 976 l 157 976 q 146 988 146 976 l 146 988 l 146 1008 q 157 1019 146 1019 l 157 1019 l 499 1019 q 510 1008 510 1019 l 510 1008 l 510 293 q 453 60 510 139 q 261 -19 396 -19 z "},"K":{"ha":924,"x_min":139,"x_max":857,"o":"m 172 0 l 150 0 q 139 11 139 0 l 139 11 l 139 1008 q 150 1019 139 1019 l 150 1019 l 172 1019 q 183 1008 183 1019 l 183 1008 l 183 383 l 750 1014 q 764 1019 756 1019 l 764 1019 l 790 1019 q 799 1015 797 1019 q 796 1006 800 1011 l 796 1006 l 449 619 l 854 14 q 855 4 857 8 q 846 0 853 0 l 846 0 l 817 0 q 804 7 808 0 l 804 7 l 419 586 l 183 322 l 183 11 q 172 0 183 0 l 172 0 z "},"L":{"ha":819,"x_min":139,"x_max":771,"o":"m 760 0 l 150 0 q 139 11 139 0 l 139 11 l 139 1008 q 150 1019 139 1019 l 150 1019 l 172 1019 q 183 1008 183 1019 l 183 1008 l 183 43 l 760 43 q 771 32 771 43 l 771 32 l 771 11 q 760 0 771 0 l 760 0 z "},"M":{"ha":1271,"x_min":139,"x_max":1132,"o":"m 172 0 l 150 0 q 139 11 139 0 l 139 11 l 139 1008 q 150 1019 139 1019 l 150 1019 l 178 1019 q 190 1013 186 1019 l 190 1013 l 638 247 l 1083 1013 q 1096 1019 1088 1019 l 1096 1019 l 1121 1019 q 1132 1008 1132 1019 l 1132 1008 l 1132 11 q 1121 0 1132 0 l 1121 0 l 1099 0 q 1088 11 1088 0 l 1088 11 l 1088 933 l 660 201 q 647 194 656 194 l 647 194 l 624 194 q 611 201 615 194 l 611 201 l 183 938 l 183 11 q 172 0 183 0 l 172 0 z "},"N":{"ha":1019,"x_min":139,"x_max":881,"o":"m 172 0 l 150 0 q 139 11 139 0 l 139 11 l 139 1008 q 150 1019 139 1019 l 150 1019 l 178 1019 q 190 1013 185 1019 l 190 1013 l 836 75 l 836 1008 q 847 1019 836 1019 l 847 1019 l 869 1019 q 881 1008 881 1019 l 881 1008 l 881 11 q 869 0 881 0 l 869 0 l 842 0 q 829 7 835 0 l 829 7 l 183 944 l 183 11 q 172 0 183 0 l 172 0 z "},"O":{"ha":1117,"x_min":83,"x_max":1033,"o":"m 558 -19 l 558 -19 q 310 45 418 -19 q 143 228 203 110 q 83 510 83 347 l 83 510 q 143 792 83 674 q 310 974 203 910 q 558 1039 418 1039 l 558 1039 q 807 974 700 1039 q 974 792 914 910 q 1033 510 1033 674 l 1033 510 q 974 228 1033 347 q 807 45 914 110 q 558 -19 700 -19 z m 558 25 l 558 25 q 793 89 697 25 q 938 263 889 153 q 988 510 988 372 l 988 510 q 938 758 988 649 q 793 931 889 868 q 558 994 697 994 l 558 994 q 324 931 419 994 q 178 758 228 867 q 129 510 129 649 l 129 510 q 178 261 129 371 q 324 88 228 151 q 558 25 419 25 z "},"P":{"ha":863,"x_min":139,"x_max":793,"o":"m 172 0 l 150 0 q 139 11 139 0 l 139 11 l 139 1008 q 150 1019 139 1019 l 150 1019 l 433 1019 q 709 933 625 1019 q 793 700 793 846 l 793 700 q 710 465 793 550 q 433 381 628 381 l 433 381 l 183 381 l 183 11 q 172 0 183 0 l 172 0 z m 426 976 l 426 976 l 183 976 l 183 424 l 426 424 q 674 494 600 424 q 747 700 747 564 l 747 700 q 674 904 747 832 q 426 976 600 976 z "},"Q":{"ha":1144,"x_min":83,"x_max":1061,"o":"m 1050 0 l 554 0 q 309 63 415 0 q 143 243 203 126 q 83 519 83 360 l 83 519 q 143 794 83 678 q 310 975 203 911 q 558 1039 418 1039 l 558 1039 q 807 975 700 1039 q 974 794 914 911 q 1033 519 1033 678 l 1033 519 q 956 220 1033 343 q 751 43 879 97 l 751 43 l 1050 43 q 1061 32 1061 43 l 1061 32 l 1061 11 q 1050 0 1061 0 l 1050 0 z m 558 44 l 558 44 q 793 107 697 44 q 938 277 889 169 q 988 519 988 385 l 988 519 q 938 761 988 654 q 793 931 889 868 q 558 994 697 994 l 558 994 q 324 931 419 994 q 178 760 228 868 q 129 519 129 653 l 129 519 q 178 276 129 383 q 324 106 228 168 q 558 44 419 44 z "},"R":{"ha":904,"x_min":139,"x_max":819,"o":"m 172 0 l 150 0 q 139 11 139 0 l 139 11 l 139 1008 q 150 1019 139 1019 l 150 1019 l 433 1019 q 640 981 561 1019 q 756 872 719 942 q 793 707 793 801 l 793 707 q 742 515 793 593 q 572 410 690 438 l 572 410 l 813 14 q 806 0 819 0 l 806 0 l 776 0 q 764 7 768 0 l 764 7 l 529 401 q 433 394 485 394 l 433 394 l 183 394 l 183 11 q 172 0 183 0 l 172 0 z m 426 976 l 426 976 l 183 976 l 183 438 l 426 438 q 674 509 600 438 q 747 707 747 581 l 747 707 q 674 906 747 835 q 426 976 600 976 z "},"S":{"ha":804,"x_min":67,"x_max":732,"o":"m 414 -19 l 414 -19 q 194 47 282 -19 q 68 247 107 113 l 68 247 q 76 261 67 257 l 76 261 l 97 268 q 111 260 108 271 l 111 260 q 222 81 150 138 q 414 25 293 25 l 414 25 q 610 84 535 25 q 686 244 686 143 l 686 244 q 656 363 686 317 q 569 442 625 410 q 433 500 513 474 l 433 500 l 371 521 q 169 631 240 565 q 97 789 97 696 l 97 789 q 136 920 97 864 q 242 1008 175 976 q 394 1039 310 1039 l 394 1039 q 714 797 650 1039 l 714 797 q 706 783 717 786 l 706 783 l 683 778 q 669 786 672 775 l 669 786 q 394 994 614 994 l 394 994 q 263 968 321 994 q 174 896 206 942 q 142 789 142 850 l 142 789 q 385 564 142 643 l 385 564 l 449 543 q 663 429 594 496 q 732 244 732 363 l 732 244 q 691 105 732 164 q 578 13 650 46 q 414 -19 507 -19 z "},"T":{"ha":875,"x_min":49,"x_max":826,"o":"m 449 0 l 426 0 q 415 11 415 0 l 415 11 l 415 976 l 60 976 q 49 988 49 976 l 49 988 l 49 1008 q 60 1019 49 1019 l 60 1019 l 815 1019 q 826 1008 826 1019 l 826 1008 l 826 988 q 815 976 826 976 l 815 976 l 460 976 l 460 11 q 449 0 460 0 l 449 0 z "},"U":{"ha":989,"x_min":121,"x_max":868,"o":"m 494 -19 l 494 -19 q 358 3 425 -19 q 238 77 292 26 q 153 211 185 128 q 121 415 121 294 l 121 415 l 121 1008 q 132 1019 121 1019 l 132 1019 l 154 1019 q 165 1008 165 1019 l 165 1008 l 165 415 q 210 190 165 276 q 329 65 254 104 q 494 25 404 25 l 494 25 q 658 65 583 25 q 778 190 733 104 q 824 415 824 276 l 824 415 l 824 1008 q 835 1019 824 1019 l 835 1019 l 857 1019 q 868 1008 868 1019 l 868 1008 l 868 415 q 836 211 868 294 q 750 77 804 128 q 630 3 696 26 q 494 -19 564 -19 z "},"V":{"ha":949,"x_min":38,"x_max":911,"o":"m 492 0 l 457 0 q 443 8 446 0 l 443 8 l 43 1007 q 51 1019 38 1019 l 51 1019 l 75 1019 q 89 1011 86 1019 l 89 1011 l 475 46 l 863 1011 q 876 1019 865 1019 l 876 1019 l 897 1019 q 906 1007 911 1019 l 906 1007 l 506 8 q 492 0 503 0 l 492 0 z "},"W":{"ha":1490,"x_min":38,"x_max":1453,"o":"m 442 0 l 407 0 q 394 8 397 0 l 394 8 l 43 1007 q 53 1019 38 1019 l 53 1019 l 76 1019 q 89 1011 88 1019 l 89 1011 l 425 54 l 719 1010 q 732 1019 721 1019 l 732 1019 l 760 1019 q 772 1010 771 1019 l 772 1010 l 1068 58 l 1403 1011 q 1415 1019 1406 1019 l 1415 1019 l 1438 1019 q 1447 1007 1453 1019 l 1447 1007 l 1096 8 q 1083 0 1094 0 l 1083 0 l 1049 0 q 1036 10 1038 0 l 1036 10 l 744 950 l 454 10 q 442 0 453 0 l 442 0 z "},"X":{"ha":869,"x_min":49,"x_max":821,"o":"m 82 0 l 58 0 q 51 4 53 0 q 51 14 49 8 l 51 14 l 407 535 l 83 1006 q 90 1019 74 1019 l 90 1019 l 115 1019 q 128 1013 125 1019 l 128 1013 l 435 565 l 743 1013 q 756 1019 747 1019 l 756 1019 l 779 1019 q 786 1006 796 1019 l 786 1006 l 463 535 l 818 14 q 819 4 821 8 q 811 0 818 0 l 811 0 l 786 0 q 774 7 778 0 l 774 7 l 435 503 l 94 7 q 82 0 92 0 l 82 0 z "},"Y":{"ha":896,"x_min":40,"x_max":856,"o":"m 460 0 l 438 0 q 426 11 426 0 l 426 11 l 426 415 l 43 1006 q 43 1015 40 1011 q 51 1019 46 1019 l 51 1019 l 76 1019 q 89 1013 86 1019 l 89 1013 l 449 457 l 808 1013 q 821 1019 813 1019 l 821 1019 l 844 1019 q 853 1015 851 1019 q 853 1006 856 1011 l 853 1006 l 471 417 l 471 11 q 460 0 471 0 l 460 0 z "},"Z":{"ha":860,"x_min":69,"x_max":782,"o":"m 771 0 l 81 0 q 69 11 69 0 l 69 11 l 69 18 q 74 32 69 26 l 74 32 l 711 976 l 92 976 q 81 988 81 976 l 81 988 l 81 1008 q 92 1019 81 1019 l 92 1019 l 763 1019 q 774 1008 774 1019 l 774 1008 l 774 1001 q 769 988 774 994 l 769 988 l 132 43 l 771 43 q 782 32 782 43 l 782 32 l 782 11 q 771 0 782 0 l 771 0 z "},"a":{"ha":840,"x_min":63,"x_max":718,"o":"m 397 -14 l 397 -14 q 220 32 296 -14 q 103 158 144 78 q 63 342 63 239 l 63 342 q 103 525 63 444 q 220 651 144 606 q 397 697 296 697 l 397 697 q 567 649 489 697 q 676 519 644 600 l 676 519 l 683 672 q 694 683 683 683 l 694 683 l 707 683 q 718 672 718 683 l 718 672 l 718 11 q 707 0 718 0 l 707 0 l 694 0 q 683 11 683 0 l 683 11 l 676 164 q 567 35 644 83 q 397 -14 489 -14 z m 394 28 l 394 28 q 545 67 481 28 q 647 176 610 106 q 683 342 683 247 l 683 342 q 647 507 683 436 q 545 617 610 578 q 394 656 481 656 l 394 656 q 244 617 310 656 q 142 507 179 578 q 106 342 106 436 l 106 342 q 142 176 106 247 q 244 67 179 106 q 394 28 310 28 z "},"b":{"ha":840,"x_min":122,"x_max":778,"o":"m 443 -14 l 443 -14 q 274 35 351 -14 q 164 164 196 83 l 164 164 l 157 11 q 146 0 157 0 l 146 0 l 133 0 q 122 11 122 0 l 122 11 l 122 1031 q 133 1042 122 1042 l 133 1042 l 153 1042 q 164 1031 164 1042 l 164 1031 l 164 521 q 274 649 196 601 q 443 697 351 697 l 443 697 q 621 651 546 697 q 737 525 696 606 q 778 342 778 444 l 778 342 q 737 158 778 239 q 621 32 696 78 q 443 -14 546 -14 z m 446 28 l 446 28 q 597 67 532 28 q 698 176 661 106 q 735 342 735 247 l 735 342 q 698 507 735 436 q 597 617 661 578 q 446 656 532 656 l 446 656 q 296 617 361 656 q 194 507 231 578 q 157 342 157 436 l 157 342 q 194 176 157 247 q 296 67 231 106 q 446 28 361 28 z "},"c":{"ha":722,"x_min":63,"x_max":669,"o":"m 392 -14 l 392 -14 q 218 32 292 -14 q 103 158 144 78 q 63 342 63 239 l 63 342 q 103 526 63 446 q 219 651 144 606 q 392 697 293 697 l 392 697 q 660 522 592 697 l 660 522 q 653 508 664 513 l 653 508 l 635 503 q 621 510 625 500 l 621 510 q 392 656 561 656 l 392 656 q 231 612 294 656 q 136 497 167 568 q 106 342 106 425 l 106 342 q 137 187 106 258 q 232 72 168 115 q 392 28 296 28 l 392 28 q 540 69 482 28 q 628 182 597 110 l 628 182 q 642 188 632 192 l 642 188 l 660 181 q 665 165 669 176 l 665 165 q 560 31 631 76 q 392 -14 489 -14 z "},"d":{"ha":840,"x_min":63,"x_max":718,"o":"m 397 -14 l 397 -14 q 220 32 296 -14 q 103 158 144 78 q 63 342 63 239 l 63 342 q 103 525 63 444 q 220 651 144 606 q 397 697 296 697 l 397 697 q 567 649 489 697 q 676 521 644 601 l 676 521 l 676 1031 q 688 1042 676 1042 l 688 1042 l 707 1042 q 718 1031 718 1042 l 718 1031 l 718 11 q 707 0 718 0 l 707 0 l 694 0 q 683 11 683 0 l 683 11 l 676 164 q 567 35 644 83 q 397 -14 489 -14 z m 394 28 l 394 28 q 545 67 481 28 q 647 176 610 106 q 683 342 683 247 l 683 342 q 647 507 683 436 q 545 617 610 578 q 394 656 481 656 l 394 656 q 244 617 310 656 q 142 507 179 578 q 106 342 106 436 l 106 342 q 142 176 106 247 q 244 67 179 106 q 394 28 310 28 z "},"e":{"ha":736,"x_min":63,"x_max":682,"o":"m 385 -14 l 385 -14 q 215 33 288 -14 q 102 160 142 79 q 63 342 63 240 l 63 342 q 103 524 63 444 q 217 651 144 604 q 386 697 290 697 l 386 697 q 549 651 483 697 q 648 524 614 604 q 682 338 682 443 l 682 338 q 671 326 682 326 l 671 326 l 106 326 q 144 169 108 236 q 242 65 181 101 q 385 28 304 28 l 385 28 q 541 69 482 28 q 635 182 600 110 l 635 182 q 649 188 639 193 l 649 188 l 664 182 q 671 168 675 178 l 671 168 q 385 -14 589 -14 z m 386 656 l 386 656 q 247 619 308 656 q 148 518 185 583 q 106 365 111 453 l 106 365 l 636 365 q 606 515 636 450 q 521 618 576 581 q 386 656 465 656 z "},"f":{"ha":469,"x_min":25,"x_max":519,"o":"m 193 0 l 174 0 q 163 11 163 0 l 163 11 l 163 643 l 36 643 q 25 654 25 643 l 25 654 l 25 672 q 36 683 25 683 l 36 683 l 163 683 l 163 821 q 215 995 163 940 q 344 1050 268 1050 l 344 1050 q 445 1022 401 1050 q 515 929 489 993 l 515 929 q 508 914 519 918 l 508 914 l 490 908 q 476 915 481 904 l 476 915 q 422 986 454 964 q 344 1008 389 1008 l 344 1008 q 240 961 276 1008 q 204 814 204 914 l 204 814 l 204 683 l 421 683 q 432 672 432 683 l 432 672 l 432 654 q 421 643 432 643 l 421 643 l 204 643 l 204 11 q 193 0 204 0 l 193 0 z "},"g":{"ha":840,"x_min":63,"x_max":718,"o":"m 406 -317 l 406 -317 q 222 -269 296 -317 q 114 -132 149 -221 l 114 -132 q 119 -118 110 -121 l 119 -118 l 138 -111 q 151 -117 147 -107 l 151 -117 q 242 -232 182 -189 q 406 -275 303 -275 l 406 -275 q 535 -253 472 -275 q 637 -175 597 -231 q 676 -22 676 -119 l 676 -22 l 676 163 q 567 34 644 82 q 397 -14 489 -14 l 397 -14 q 220 32 296 -14 q 103 158 144 78 q 63 342 63 239 l 63 342 q 103 525 63 444 q 220 651 144 606 q 397 697 296 697 l 397 697 q 567 649 489 697 q 676 519 644 600 l 676 519 l 683 672 q 694 683 683 683 l 694 683 l 707 683 q 718 672 718 683 l 718 672 l 718 -18 q 674 -196 718 -131 q 558 -289 629 -261 q 406 -317 486 -317 z m 394 28 l 394 28 q 545 67 481 28 q 647 176 610 106 q 683 342 683 247 l 683 342 q 647 507 683 436 q 545 617 610 578 q 394 656 481 656 l 394 656 q 244 617 310 656 q 142 507 179 578 q 106 342 106 436 l 106 342 q 142 176 106 247 q 244 67 179 106 q 394 28 310 28 z "},"h":{"ha":790,"x_min":122,"x_max":672,"o":"m 153 0 l 133 0 q 122 11 122 0 l 122 11 l 122 1031 q 133 1042 122 1042 l 133 1042 l 153 1042 q 164 1031 164 1042 l 164 1031 l 164 525 q 231 620 188 582 q 328 678 275 658 q 432 697 381 697 l 432 697 q 608 630 544 697 q 672 443 672 563 l 672 443 l 672 11 q 661 0 672 0 l 661 0 l 642 0 q 631 11 631 0 l 631 11 l 631 424 q 581 596 631 536 q 428 656 532 656 l 428 656 q 340 639 386 656 q 254 588 294 622 q 189 501 214 554 q 164 375 164 449 l 164 375 l 164 11 q 153 0 164 0 l 153 0 z "},"i":{"ha":286,"x_min":101,"x_max":185,"o":"m 143 872 l 143 872 q 113 884 125 872 q 101 914 101 896 l 101 914 q 113 943 101 932 q 143 954 125 954 l 143 954 q 173 943 161 954 q 185 914 185 932 l 185 914 q 173 884 185 896 q 143 872 161 872 z m 153 0 l 133 0 q 122 11 122 0 l 122 11 l 122 672 q 133 683 122 683 l 133 683 l 153 683 q 164 672 164 683 l 164 672 l 164 11 q 153 0 164 0 l 153 0 z "},"j":{"ha":286,"x_min":-162,"x_max":185,"o":"m 143 872 l 143 872 q 113 884 125 872 q 101 914 101 896 l 101 914 q 113 943 101 932 q 143 954 125 954 l 143 954 q 173 943 161 954 q 185 914 185 932 l 185 914 q 173 884 185 896 q 143 872 161 872 z m -4 -317 l -4 -317 q -99 -289 -61 -317 q -158 -197 -136 -261 l -158 -197 q -151 -182 -162 -186 l -151 -182 l -137 -178 q -122 -185 -126 -174 l -122 -185 q -76 -253 -104 -232 q -4 -275 -49 -275 l -4 -275 q 88 -232 53 -275 q 122 -89 122 -189 l 122 -89 l 122 672 q 133 683 122 683 l 133 683 l 153 683 q 164 672 164 683 l 164 672 l 164 -96 q 140 -224 164 -175 q 78 -294 117 -272 q -4 -317 40 -317 z "},"k":{"ha":692,"x_min":122,"x_max":646,"o":"m 153 0 l 133 0 q 122 11 122 0 l 122 11 l 122 1031 q 133 1042 122 1042 l 133 1042 l 153 1042 q 164 1031 164 1042 l 164 1031 l 164 329 l 550 678 q 564 683 556 683 l 564 683 l 590 683 q 599 679 597 683 q 596 669 601 675 l 596 669 l 328 429 l 636 14 q 629 0 646 0 l 629 0 l 603 0 q 589 7 593 0 l 589 7 l 296 400 l 164 282 l 164 11 q 153 0 164 0 l 153 0 z "},"l":{"ha":286,"x_min":122,"x_max":164,"o":"m 153 0 l 133 0 q 122 11 122 0 l 122 11 l 122 1031 q 133 1042 122 1042 l 133 1042 l 153 1042 q 164 1031 164 1042 l 164 1031 l 164 11 q 153 0 164 0 l 153 0 z "},"m":{"ha":1260,"x_min":122,"x_max":1142,"o":"m 153 0 l 133 0 q 122 11 122 0 l 122 11 l 122 672 q 133 683 122 683 l 133 683 l 146 683 q 157 672 157 683 l 157 672 l 164 525 q 270 654 199 611 q 418 697 342 697 l 418 697 q 568 649 508 697 q 646 514 628 600 l 646 514 q 752 651 678 606 q 907 697 826 697 l 907 697 q 1078 630 1015 697 q 1142 443 1142 563 l 1142 443 l 1142 11 q 1131 0 1142 0 l 1131 0 l 1111 0 q 1100 11 1100 0 l 1100 11 l 1100 424 q 1051 596 1100 536 q 904 656 1003 656 l 904 656 q 790 626 849 656 q 692 535 732 597 q 653 375 653 474 l 653 375 l 653 11 q 642 0 653 0 l 642 0 l 622 0 q 611 11 611 0 l 611 11 l 611 424 q 563 596 611 536 q 415 656 514 656 l 415 656 q 301 626 360 656 q 203 535 243 597 q 164 375 164 474 l 164 375 l 164 11 q 153 0 164 0 l 153 0 z "},"n":{"ha":790,"x_min":122,"x_max":672,"o":"m 153 0 l 133 0 q 122 11 122 0 l 122 11 l 122 672 q 133 683 122 683 l 133 683 l 146 683 q 157 672 157 683 l 157 672 l 163 524 q 231 619 186 581 q 328 678 275 658 q 432 697 381 697 l 432 697 q 608 630 544 697 q 672 443 672 563 l 672 443 l 672 11 q 661 0 672 0 l 661 0 l 642 0 q 631 11 631 0 l 631 11 l 631 424 q 581 596 631 536 q 428 656 532 656 l 428 656 q 340 639 386 656 q 254 588 294 622 q 189 501 214 554 q 164 375 164 449 l 164 375 l 164 11 q 153 0 164 0 l 153 0 z "},"o":{"ha":789,"x_min":63,"x_max":726,"o":"m 394 -14 l 394 -14 q 220 33 294 -14 q 104 160 146 79 q 63 342 63 240 l 63 342 q 104 524 63 444 q 220 651 146 604 q 394 697 294 697 l 394 697 q 569 651 494 697 q 685 524 644 604 q 726 342 726 444 l 726 342 q 685 160 726 240 q 569 33 644 79 q 394 -14 494 -14 z m 394 28 l 394 28 q 545 67 481 28 q 647 176 610 106 q 683 342 683 247 l 683 342 q 647 507 683 436 q 545 617 610 578 q 394 656 481 656 l 394 656 q 244 617 310 656 q 142 507 179 578 q 106 342 106 436 l 106 342 q 142 176 106 247 q 244 67 179 106 q 394 28 310 28 z "},"p":{"ha":840,"x_min":122,"x_max":778,"o":"m 153 -303 l 133 -303 q 122 -292 122 -303 l 122 -292 l 122 672 q 133 683 122 683 l 133 683 l 146 683 q 157 672 157 683 l 157 672 l 164 519 q 274 649 196 600 q 443 697 351 697 l 443 697 q 621 651 546 697 q 737 525 696 606 q 778 342 778 444 l 778 342 q 737 158 778 239 q 621 32 696 78 q 443 -14 546 -14 l 443 -14 q 274 34 351 -14 q 164 163 196 82 l 164 163 l 164 -292 q 153 -303 164 -303 l 153 -303 z m 446 28 l 446 28 q 597 67 532 28 q 698 176 661 106 q 735 342 735 247 l 735 342 q 698 507 735 436 q 597 617 661 578 q 446 656 532 656 l 446 656 q 296 617 361 656 q 194 507 231 578 q 157 342 157 436 l 157 342 q 194 176 157 247 q 296 67 231 106 q 446 28 361 28 z "},"q":{"ha":840,"x_min":63,"x_max":718,"o":"m 707 -303 l 689 -303 q 676 -292 678 -303 l 676 -292 l 676 163 q 567 34 644 82 q 397 -14 489 -14 l 397 -14 q 220 32 296 -14 q 103 158 144 78 q 63 342 63 239 l 63 342 q 103 525 63 444 q 220 651 144 606 q 397 697 296 697 l 397 697 q 567 649 489 697 q 676 519 644 600 l 676 519 l 683 672 q 694 683 683 683 l 694 683 l 707 683 q 718 672 718 683 l 718 672 l 718 -292 q 707 -303 718 -303 l 707 -303 z m 394 28 l 394 28 q 545 67 481 28 q 647 176 610 106 q 683 342 683 247 l 683 342 q 647 507 683 436 q 545 617 610 578 q 394 656 481 656 l 394 656 q 244 617 310 656 q 142 507 179 578 q 106 342 106 436 l 106 342 q 142 176 106 247 q 244 67 179 106 q 394 28 310 28 z "},"r":{"ha":486,"x_min":122,"x_max":458,"o":"m 153 0 l 133 0 q 122 11 122 0 l 122 11 l 122 672 q 133 683 122 683 l 133 683 l 146 683 q 157 672 157 683 l 157 672 l 164 521 q 269 647 203 600 q 422 693 336 693 l 422 693 q 449 692 442 693 l 449 692 q 458 681 458 690 l 458 681 l 458 661 q 447 650 458 647 l 447 650 q 418 651 439 651 l 418 651 q 294 615 351 651 q 200 518 236 578 q 164 389 164 458 l 164 389 l 164 11 q 153 0 164 0 l 153 0 z "},"s":{"ha":633,"x_min":56,"x_max":550,"o":"m 332 -14 l 332 -14 q 161 29 231 -14 q 60 165 92 72 l 60 165 q 67 179 56 175 l 67 179 l 85 185 q 99 178 94 188 l 99 178 q 184 64 128 100 q 332 28 240 28 l 332 28 q 456 63 406 28 q 507 167 507 99 l 507 167 q 466 261 507 226 q 339 318 425 296 l 339 318 l 290 331 q 140 404 188 358 q 92 519 92 450 l 92 519 q 150 647 92 596 q 307 697 208 697 l 307 697 q 448 659 385 697 q 540 539 511 621 l 540 539 q 533 525 544 529 l 533 525 l 515 519 q 501 526 506 515 l 501 526 q 424 624 474 593 q 307 656 375 656 l 307 656 q 181 618 228 656 q 135 519 135 581 l 135 519 q 174 430 135 464 q 313 368 213 396 l 313 368 l 356 357 q 503 284 457 331 q 550 169 550 238 l 550 169 q 490 36 550 86 q 332 -14 429 -14 z "},"t":{"ha":507,"x_min":11,"x_max":494,"o":"m 326 -14 l 326 -14 q 208 37 254 -14 q 163 207 163 88 l 163 207 l 163 643 l 22 643 q 11 654 11 643 l 11 654 l 11 672 q 22 683 11 683 l 22 683 l 163 683 l 163 919 q 174 931 163 931 l 174 931 l 193 931 q 204 919 204 931 l 204 919 l 204 683 l 422 683 q 433 672 433 683 l 433 672 l 433 654 q 422 643 433 643 l 422 643 l 204 643 l 204 214 q 235 71 204 114 q 326 28 265 28 l 326 28 q 399 50 367 28 q 454 121 432 72 l 454 121 q 468 126 458 129 l 468 126 l 483 121 q 489 104 494 117 l 489 104 q 419 14 461 42 q 326 -14 378 -14 z "},"u":{"ha":783,"x_min":118,"x_max":661,"o":"m 356 -14 l 356 -14 q 182 54 246 -14 q 118 240 118 122 l 118 240 l 118 672 q 129 683 118 683 l 129 683 l 149 683 q 160 672 160 683 l 160 672 l 160 260 q 209 88 160 147 q 360 28 258 28 l 360 28 q 447 44 401 28 q 531 95 492 61 q 594 182 569 129 q 619 308 619 235 l 619 308 l 619 672 q 631 683 619 683 l 631 683 l 650 683 q 661 672 661 683 l 661 672 l 661 11 q 650 0 661 0 l 650 0 l 638 0 q 626 11 626 0 l 626 11 l 621 160 q 554 64 597 103 q 458 6 511 25 q 356 -14 406 -14 z "},"v":{"ha":694,"x_min":38,"x_max":657,"o":"m 353 0 l 342 0 q 328 8 331 0 l 328 8 l 43 671 q 51 683 38 683 l 51 683 l 75 683 q 89 675 86 683 l 89 675 l 349 67 l 607 675 q 621 683 610 683 l 621 683 l 643 683 q 651 671 657 683 l 651 671 l 367 8 q 353 0 364 0 l 353 0 z "},"w":{"ha":1069,"x_min":38,"x_max":1031,"o":"m 299 0 l 288 0 q 275 8 278 0 l 275 8 l 43 671 q 53 683 38 683 l 53 683 l 76 683 q 89 675 86 683 l 89 675 l 294 78 l 518 675 q 531 683 521 683 l 531 683 l 542 683 q 554 675 551 683 l 554 675 l 776 79 l 982 675 q 996 683 985 683 l 996 683 l 1018 683 q 1026 671 1031 683 l 1026 671 l 794 8 q 782 0 792 0 l 782 0 l 771 0 q 758 8 761 0 l 758 8 l 535 607 l 311 8 q 299 0 308 0 l 299 0 z "},"x":{"ha":658,"x_min":39,"x_max":624,"o":"m 79 0 l 51 0 q 42 4 46 0 q 44 14 39 8 l 44 14 l 303 358 l 68 669 q 66 679 64 675 q 75 683 68 683 l 75 683 l 103 683 q 117 676 111 683 l 117 676 l 331 390 l 542 676 q 556 683 547 683 l 556 683 l 583 683 q 590 669 600 683 l 590 669 l 356 357 l 614 14 q 607 0 624 0 l 607 0 l 579 0 q 565 7 569 0 l 565 7 l 326 325 l 93 7 q 79 0 88 0 l 79 0 z "},"y":{"ha":692,"x_min":39,"x_max":654,"o":"m 247 -303 l 226 -303 q 218 -290 213 -303 l 218 -290 l 338 3 l 43 671 q 51 683 39 683 l 51 683 l 75 683 q 89 675 86 683 l 89 675 l 358 57 l 606 675 q 618 683 608 683 l 618 683 l 640 683 q 649 671 654 683 l 649 671 l 261 -294 q 247 -303 258 -303 l 247 -303 z "},"z":{"ha":683,"x_min":89,"x_max":594,"o":"m 583 0 l 100 0 q 89 11 89 0 l 89 11 l 89 14 q 93 26 89 21 l 93 26 l 522 643 l 108 643 q 97 654 97 643 l 97 654 l 97 672 q 108 683 97 683 l 108 683 l 576 683 q 588 674 588 683 l 588 674 l 588 669 q 583 657 588 664 l 583 657 l 154 40 l 583 40 q 594 29 594 40 l 594 29 l 594 11 q 583 0 594 0 l 583 0 z "},"ﬁ":{"ha":743,"x_min":25,"x_max":642,"o":"m 193 0 l 174 0 q 163 11 163 0 l 163 11 l 163 643 l 36 643 q 25 654 25 643 l 25 654 l 25 672 q 36 683 25 683 l 36 683 l 163 683 l 163 821 q 217 995 163 940 q 358 1050 271 1050 l 358 1050 q 511 985 447 1050 l 511 985 q 510 968 519 978 l 510 968 l 499 957 q 482 957 490 949 l 482 957 q 358 1008 429 1008 l 358 1008 q 242 961 281 1008 q 204 814 204 914 l 204 814 l 204 683 l 610 683 q 621 672 621 683 l 621 672 l 621 11 q 610 0 621 0 l 610 0 l 590 0 q 579 11 579 0 l 579 11 l 579 643 l 204 643 l 204 11 q 193 0 204 0 l 193 0 z m 600 872 l 600 872 q 570 884 582 872 q 558 914 558 896 l 558 914 q 570 943 558 932 q 600 954 582 954 l 600 954 q 630 943 618 954 q 642 914 642 932 l 642 914 q 630 884 642 896 q 600 872 618 872 z "},"ﬂ":{"ha":743,"x_min":25,"x_max":621,"o":"m 193 0 l 174 0 q 163 11 163 0 l 163 11 l 163 643 l 36 643 q 25 654 25 643 l 25 654 l 25 672 q 36 683 25 683 l 36 683 l 163 683 l 163 821 q 217 995 163 940 q 358 1050 271 1050 l 358 1050 q 511 985 447 1050 l 511 985 q 510 968 519 978 l 510 968 l 499 957 q 482 957 490 949 l 482 957 q 358 1008 429 1008 l 358 1008 q 242 961 281 1008 q 204 814 204 914 l 204 814 l 204 683 l 421 683 q 432 672 432 683 l 432 672 l 432 654 q 421 643 432 643 l 421 643 l 204 643 l 204 11 q 193 0 204 0 l 193 0 z m 610 0 l 590 0 q 579 11 579 0 l 579 11 l 579 1031 q 590 1042 579 1042 l 590 1042 l 610 1042 q 621 1031 621 1042 l 621 1031 l 621 11 q 610 0 621 0 l 610 0 z "},"ﬃ":{"ha":1160,"x_min":25,"x_max":1058,"o":"m 193 0 l 174 0 q 163 11 163 0 l 163 11 l 163 643 l 36 643 q 25 654 25 643 l 25 654 l 25 672 q 36 683 25 683 l 36 683 l 163 683 l 163 821 q 217 995 163 940 q 358 1050 271 1050 l 358 1050 q 511 985 447 1050 l 511 985 q 510 968 519 978 l 510 968 l 499 957 q 482 957 490 949 l 482 957 q 358 1008 429 1008 l 358 1008 q 242 961 281 1008 q 204 814 204 914 l 204 814 l 204 683 l 579 683 l 579 821 q 633 995 579 940 q 775 1050 688 1050 l 775 1050 q 858 1034 819 1050 q 928 985 897 1018 l 928 985 q 926 968 935 976 l 926 968 l 915 957 q 899 957 907 949 l 899 957 q 775 1008 846 1008 l 775 1008 q 659 961 697 1008 q 621 814 621 914 l 621 814 l 621 683 l 1026 683 q 1038 672 1038 683 l 1038 672 l 1038 11 q 1026 0 1038 0 l 1026 0 l 1007 0 q 996 11 996 0 l 996 11 l 996 643 l 621 643 l 621 11 q 610 0 621 0 l 610 0 l 590 0 q 579 11 579 0 l 579 11 l 579 643 l 204 643 l 204 11 q 193 0 204 0 l 193 0 z m 1017 872 l 1017 872 q 987 884 999 872 q 975 914 975 896 l 975 914 q 987 943 975 932 q 1017 954 999 954 l 1017 954 q 1047 943 1035 954 q 1058 914 1058 932 l 1058 914 q 1047 884 1058 896 q 1017 872 1035 872 z "},"ﬄ":{"ha":1160,"x_min":25,"x_max":1038,"o":"m 193 0 l 174 0 q 163 11 163 0 l 163 11 l 163 643 l 36 643 q 25 654 25 643 l 25 654 l 25 672 q 36 683 25 683 l 36 683 l 163 683 l 163 821 q 217 995 163 940 q 358 1050 271 1050 l 358 1050 q 511 985 447 1050 l 511 985 q 510 968 519 978 l 510 968 l 499 957 q 482 957 490 949 l 482 957 q 358 1008 429 1008 l 358 1008 q 242 961 281 1008 q 204 814 204 914 l 204 814 l 204 683 l 579 683 l 579 821 q 633 995 579 940 q 775 1050 688 1050 l 775 1050 q 858 1034 819 1050 q 928 985 897 1018 l 928 985 q 926 968 935 976 l 926 968 l 915 957 q 899 957 907 949 l 899 957 q 775 1008 846 1008 l 775 1008 q 659 961 697 1008 q 621 814 621 914 l 621 814 l 621 683 l 838 683 q 849 672 849 683 l 849 672 l 849 654 q 838 643 849 643 l 838 643 l 621 643 l 621 11 q 610 0 621 0 l 610 0 l 590 0 q 579 11 579 0 l 579 11 l 579 643 l 204 643 l 204 11 q 193 0 204 0 l 193 0 z m 1026 0 l 1007 0 q 996 11 996 0 l 996 11 l 996 1031 q 1007 1042 996 1042 l 1007 1042 l 1026 1042 q 1038 1031 1038 1042 l 1038 1031 l 1038 11 q 1026 0 1038 0 l 1026 0 z "},"ﬀ":{"ha":886,"x_min":25,"x_max":936,"o":"m 193 0 l 174 0 q 163 11 163 0 l 163 11 l 163 643 l 36 643 q 25 654 25 643 l 25 654 l 25 672 q 36 683 25 683 l 36 683 l 163 683 l 163 821 q 217 995 163 940 q 358 1050 271 1050 l 358 1050 q 511 985 447 1050 l 511 985 q 510 968 519 978 l 510 968 l 499 957 q 482 957 490 949 l 482 957 q 358 1008 429 1008 l 358 1008 q 242 961 281 1008 q 204 814 204 914 l 204 814 l 204 683 l 579 683 l 579 821 q 632 995 579 940 q 761 1050 685 1050 l 761 1050 q 862 1022 818 1050 q 932 929 906 993 l 932 929 q 925 914 936 918 l 925 914 l 907 908 q 893 915 897 904 l 893 915 q 838 986 871 964 q 761 1008 806 1008 l 761 1008 q 657 961 693 1008 q 621 814 621 914 l 621 814 l 621 683 l 838 683 q 849 672 849 683 l 849 672 l 849 654 q 838 643 849 643 l 838 643 l 621 643 l 621 11 q 610 0 621 0 l 610 0 l 590 0 q 579 11 579 0 l 579 11 l 579 643 l 204 643 l 204 11 q 193 0 204 0 l 193 0 z "},"©":{"ha":1200,"x_min":83,"x_max":1117,"o":"m 600 -19 l 600 -19 q 333 48 450 -19 q 150 235 217 115 q 83 510 83 354 l 83 510 q 150 785 83 667 q 333 972 217 904 q 600 1039 450 1039 l 600 1039 q 867 972 751 1039 q 1050 785 983 904 q 1117 510 1117 667 l 1117 510 q 1050 235 1117 354 q 867 48 983 115 q 600 -19 751 -19 z m 600 25 l 600 25 q 799 63 711 25 q 947 169 886 101 q 1039 324 1007 236 q 1071 510 1071 411 l 1071 510 q 1039 696 1071 608 q 947 851 1007 783 q 799 956 886 918 q 600 994 711 994 l 600 994 q 401 956 489 994 q 253 851 314 918 q 161 696 193 783 q 129 510 129 608 l 129 510 q 161 324 129 411 q 253 169 193 236 q 401 63 314 101 q 600 25 489 25 z m 603 224 l 603 224 q 460 260 519 224 q 368 362 400 297 q 336 510 336 426 l 336 510 q 370 658 336 593 q 464 759 404 722 q 603 796 524 796 l 603 796 q 738 760 681 796 q 824 657 796 725 l 824 657 q 817 643 828 646 l 817 643 l 796 639 q 782 646 786 636 l 782 646 q 603 753 735 753 l 603 753 q 478 719 528 753 q 405 629 429 685 q 381 510 381 574 l 381 510 q 404 390 381 446 q 477 301 428 335 q 603 267 526 267 l 603 267 q 717 297 669 267 q 788 381 765 326 l 788 381 q 801 388 792 392 l 801 388 l 821 381 q 828 367 832 376 l 828 367 q 740 259 800 294 q 603 224 681 224 z "},"®":{"ha":881,"x_min":83,"x_max":797,"o":"m 440 326 l 440 326 q 256 372 336 326 q 129 499 175 418 q 83 686 83 581 l 83 686 q 129 874 83 793 q 256 1000 175 954 q 440 1046 336 1046 l 440 1046 q 625 1000 544 1046 q 751 874 706 954 q 797 686 797 793 l 797 686 q 751 499 797 581 q 625 372 706 418 q 440 326 544 326 z m 440 368 l 440 368 q 609 412 539 368 q 717 528 679 456 q 754 686 754 600 l 754 686 q 717 844 754 772 q 609 960 679 917 q 440 1004 539 1004 l 440 1004 q 272 960 342 1004 q 164 844 201 917 q 126 686 126 772 l 126 686 q 164 528 126 600 q 272 412 201 456 q 440 368 342 368 z m 360 528 l 342 528 q 331 539 331 528 l 331 539 l 331 858 q 342 869 331 869 l 342 869 l 436 869 q 535 840 506 869 q 565 764 565 810 l 565 764 q 549 701 565 726 q 494 663 532 675 l 494 663 l 568 542 q 561 528 575 528 l 561 528 l 539 528 q 526 535 531 528 l 526 535 l 454 656 q 436 656 446 656 l 436 656 l 371 656 l 371 539 q 360 528 371 528 l 360 528 z m 435 831 l 435 831 l 371 831 l 371 694 l 435 694 q 503 712 483 694 q 524 764 524 729 l 524 764 q 503 814 524 797 q 435 831 483 831 z "},"™":{"ha":1278,"x_min":36,"x_max":1208,"o":"m 639 458 l 619 458 q 608 469 608 458 l 608 469 l 608 1008 q 619 1019 608 1019 l 619 1019 l 646 1019 q 658 1013 656 1019 l 658 1013 l 910 615 l 1160 1013 q 1172 1019 1164 1019 l 1172 1019 l 1197 1019 q 1208 1008 1208 1019 l 1208 1008 l 1208 469 q 1197 458 1208 458 l 1197 458 l 1178 458 q 1167 469 1167 458 l 1167 469 l 1167 949 l 929 572 q 917 565 926 565 l 917 565 l 900 565 q 888 572 892 565 l 888 572 l 650 949 l 650 469 q 639 458 650 458 l 639 458 z m 283 458 l 264 458 q 253 469 253 458 l 253 469 l 253 979 l 47 979 q 36 990 36 979 l 36 990 l 36 1008 q 47 1019 36 1019 l 47 1019 l 500 1019 q 511 1008 511 1019 l 511 1008 l 511 990 q 500 979 511 979 l 500 979 l 294 979 l 294 469 q 283 458 294 458 l 283 458 z "},"📷":{"ha":1389,"x_min":250,"x_max":1138,"o":"m 1079 81 l 307 81 q 267 98 285 81 q 250 139 250 115 l 250 139 l 250 775 q 267 817 250 800 q 307 835 285 835 l 307 835 l 479 835 l 524 899 q 574 924 540 924 l 574 924 l 813 924 q 858 900 842 924 l 858 900 l 908 835 l 1079 835 q 1120 817 1103 835 q 1138 775 1138 800 l 1138 775 l 1138 139 q 1120 98 1138 115 q 1079 81 1103 81 l 1079 81 z m 693 267 l 693 267 q 790 292 746 267 q 859 361 833 318 q 885 457 885 404 l 885 457 q 859 555 885 511 q 790 624 833 599 q 693 650 746 650 l 693 650 q 598 624 642 650 q 528 555 554 599 q 503 457 503 511 l 503 457 q 528 361 503 404 q 598 292 554 318 q 693 267 642 267 z m 693 317 l 693 317 q 594 358 636 317 q 551 457 551 400 l 551 457 q 594 558 551 517 q 693 599 636 599 l 693 599 q 793 558 751 599 q 835 457 835 517 l 835 457 q 793 358 835 400 q 693 317 751 317 z "},"💬":{"ha":1389,"x_min":260,"x_max":1128,"o":"m 503 61 l 485 22 l 453 54 q 370 155 415 92 q 292 300 325 218 q 260 475 260 382 l 260 475 q 314 709 260 610 q 467 863 368 808 q 700 918 565 918 l 700 918 q 926 872 831 918 q 1075 740 1022 825 q 1128 539 1128 656 l 1128 539 q 1099 390 1128 460 q 1017 266 1069 319 q 897 183 965 213 q 749 153 828 153 l 749 153 l 632 153 q 550 124 582 153 q 503 61 518 96 l 503 61 z m 513 467 l 513 467 q 545 481 532 467 q 558 513 558 494 l 558 513 q 545 547 558 533 q 513 560 532 560 l 513 560 q 481 547 494 560 q 468 513 468 533 l 468 513 q 481 481 468 494 q 513 467 494 467 z m 690 467 l 690 467 q 722 481 708 467 q 736 513 736 494 l 736 513 q 722 547 736 533 q 690 560 708 560 l 690 560 q 659 547 672 560 q 646 513 646 533 l 646 513 q 659 481 646 494 q 690 467 672 467 z m 868 467 l 868 467 q 899 481 886 467 q 913 513 913 494 l 913 513 q 899 547 913 533 q 868 560 886 560 l 868 560 q 835 547 847 560 q 822 513 822 533 l 822 513 q 835 481 822 494 q 868 467 847 467 z "},"✉":{"ha":1389,"x_min":249,"x_max":1138,"o":"m 1031 106 l 358 106 q 281 137 313 106 q 249 214 249 168 l 249 214 l 249 743 q 281 822 249 789 q 358 854 313 854 l 358 854 l 1031 854 q 1106 822 1075 854 q 1138 743 1138 789 l 1138 743 l 1138 214 q 1106 138 1138 169 q 1031 106 1075 106 l 1031 106 z m 367 694 l 693 419 l 1019 694 q 1031 717 1031 703 l 1031 717 q 1025 733 1031 724 q 1006 742 1019 742 l 1006 742 q 988 735 996 742 l 988 735 l 693 486 l 399 735 q 381 742 389 742 l 381 742 q 361 733 367 742 q 356 717 356 724 l 356 717 q 367 694 356 703 l 367 694 z "},"🕓":{"ha":1389,"x_min":228,"x_max":1160,"o":"m 693 13 l 693 13 q 513 49 597 13 q 365 149 429 85 q 264 297 300 213 q 228 476 228 381 l 228 476 q 264 656 228 572 q 365 804 300 740 q 513 904 429 868 q 693 940 597 940 l 693 940 q 874 904 789 940 q 1023 803 958 868 q 1124 655 1088 739 q 1160 475 1160 571 l 1160 475 q 1124 296 1160 379 q 1023 149 1088 213 q 874 49 958 85 q 693 13 789 13 z m 668 461 l 842 361 l 865 406 l 718 490 l 718 731 l 668 731 l 668 461 z "},"🎵":{"ha":1389,"x_min":275,"x_max":1025,"o":"m 404 49 l 404 49 q 314 88 353 49 q 275 179 275 126 l 275 179 q 313 274 275 235 q 404 314 351 314 l 404 314 q 472 296 436 314 l 472 296 l 472 744 q 485 781 472 764 q 517 803 499 797 l 517 803 l 951 918 q 1001 907 978 925 q 1025 863 1025 889 l 1025 863 l 1025 313 q 986 217 1025 257 q 890 178 947 178 l 890 178 q 799 215 839 178 q 760 313 760 253 l 760 313 q 799 404 760 365 q 890 443 839 443 l 890 443 q 960 425 925 443 l 960 425 l 960 724 l 540 611 l 540 179 q 500 88 540 128 q 404 49 460 49 z "},"📞":{"ha":1389,"x_min":236,"x_max":1154,"o":"m 940 19 l 940 19 q 720 83 839 19 q 483 265 601 147 l 483 265 q 351 426 407 343 q 266 590 296 510 q 236 732 236 669 l 236 732 q 272 839 236 801 l 272 839 l 342 910 q 375 931 357 925 q 411 938 393 938 l 411 938 q 454 929 433 938 q 490 903 475 921 l 490 903 l 597 781 q 611 744 611 764 l 611 744 q 592 704 611 724 l 592 704 l 499 608 q 519 559 500 592 q 569 489 539 526 q 633 417 599 451 l 633 417 q 706 352 668 382 q 775 303 743 322 q 824 283 807 285 l 824 283 l 918 378 q 961 396 936 396 l 961 396 q 1000 381 982 396 l 1000 381 l 1121 272 q 1154 197 1154 243 l 1154 197 q 1126 128 1154 156 l 1126 128 l 1057 57 q 1008 29 1039 39 q 940 19 976 19 z "},"🔍":{"ha":1389,"x_min":240,"x_max":1149,"o":"m 1149 88 l 1079 18 l 825 271 q 606 196 732 196 l 606 196 q 465 224 531 196 q 348 303 399 253 q 269 420 297 354 q 240 561 240 486 l 240 561 q 269 703 240 636 q 347 819 297 769 q 464 898 397 869 q 606 926 531 926 l 606 926 q 790 877 707 926 q 923 745 874 828 q 972 561 972 663 l 972 561 q 896 342 972 438 l 896 342 l 1149 88 z m 606 296 l 606 296 q 739 331 679 296 q 834 427 799 367 q 869 561 869 488 l 869 561 q 834 694 869 635 q 739 790 799 754 q 606 825 679 825 l 606 825 q 473 790 533 825 q 377 694 413 754 q 342 561 342 635 l 342 561 q 377 428 342 489 q 473 332 413 368 q 606 296 533 296 z "},"🛍":{"ha":1389,"x_min":314,"x_max":1074,"o":"m 1074 249 l 314 249 l 314 760 q 331 801 314 783 q 371 818 349 818 l 371 818 l 513 818 q 537 910 513 869 q 602 976 561 951 q 693 1000 643 1000 l 693 1000 q 785 976 744 1000 q 851 910 826 951 q 875 818 875 869 l 875 818 l 1015 818 q 1056 801 1039 818 q 1074 760 1074 783 l 1074 760 l 1074 249 z m 578 818 l 578 818 l 810 818 q 776 901 810 867 q 693 935 742 935 l 693 935 q 612 901 646 935 q 578 818 578 867 z m 1015 24 l 371 24 q 331 41 349 24 q 314 83 314 58 l 314 83 l 314 200 l 1074 200 l 1074 83 q 1056 41 1074 58 q 1015 24 1039 24 l 1015 24 z "},"☻":{"ha":1389,"x_min":228,"x_max":1160,"o":"m 693 13 l 693 13 q 513 49 597 13 q 365 149 429 85 q 264 297 300 213 q 228 476 228 381 l 228 476 q 264 656 228 572 q 365 804 300 740 q 513 904 429 868 q 693 940 597 940 l 693 940 q 874 904 789 940 q 1023 803 958 868 q 1124 655 1088 739 q 1160 475 1160 571 l 1160 475 q 1124 296 1160 379 q 1023 149 1088 213 q 874 49 958 85 q 693 13 789 13 z m 550 517 l 550 517 q 584 532 569 517 q 599 568 599 547 l 599 568 q 584 603 599 588 q 550 618 569 618 l 550 618 q 513 603 528 618 q 497 568 497 588 l 497 568 q 513 532 497 547 q 550 517 528 517 z m 840 517 l 840 517 q 877 532 863 517 q 892 568 892 547 l 892 568 q 877 603 892 588 q 840 618 863 618 l 840 618 q 806 603 821 618 q 792 568 792 588 l 792 568 q 806 532 792 547 q 840 517 821 517 z m 694 272 l 694 272 q 801 299 751 272 q 878 376 850 326 l 878 376 q 868 410 890 399 l 868 410 q 848 412 860 414 q 832 401 836 410 l 832 401 q 776 342 814 364 q 694 321 738 321 l 694 321 q 616 343 651 321 q 557 401 581 365 l 557 401 q 540 412 551 410 q 521 410 529 414 l 521 410 q 513 376 499 397 l 513 376 q 592 301 544 329 q 694 272 639 272 z "},"🔈":{"ha":1389,"x_min":199,"x_max":1189,"o":"m 785 21 l 785 21 q 760 29 771 21 l 760 29 l 514 268 l 232 268 q 208 277 218 268 q 199 299 199 286 l 199 299 l 199 658 q 208 681 199 672 q 232 690 218 690 l 232 690 l 514 690 l 760 929 q 786 940 771 940 l 786 940 q 808 930 799 940 q 817 904 817 919 l 817 904 l 817 51 q 785 21 817 21 z m 1022 169 l 1022 169 l 988 226 q 1088 333 1051 267 q 1125 475 1125 399 l 1125 475 q 988 722 1125 626 l 988 722 l 1022 778 q 1144 648 1099 731 q 1189 475 1189 565 l 1189 475 q 1145 301 1189 382 q 1022 169 1101 221 z m 943 297 l 943 297 l 907 353 q 974 481 974 400 l 974 481 q 907 594 974 549 l 907 594 l 943 650 q 1039 474 1039 582 l 1039 474 q 1013 375 1039 422 q 943 297 988 328 z "},"👤":{"ha":1389,"x_min":261,"x_max":1129,"o":"m 1129 0 l 261 0 l 261 126 q 278 192 261 161 q 324 242 294 224 l 324 242 l 565 392 q 574 400 568 394 q 581 422 581 406 l 581 422 q 576 449 581 438 q 567 471 571 461 l 567 471 q 553 497 561 482 q 535 531 544 513 l 535 531 q 525 550 529 540 q 514 569 521 560 l 514 569 q 480 610 490 585 q 469 658 469 636 l 469 658 q 474 686 469 674 q 482 707 478 699 l 482 707 q 545 874 486 810 q 696 938 604 938 l 696 938 q 847 874 788 938 q 908 707 906 810 l 908 707 q 917 686 913 699 q 921 658 921 674 l 921 658 q 910 610 921 636 q 876 569 900 585 l 876 569 q 866 550 871 560 q 856 531 861 540 l 856 531 q 838 497 846 513 q 824 471 831 482 l 824 471 q 815 447 819 461 q 810 422 810 433 l 810 422 q 816 400 810 406 q 825 392 822 394 l 825 392 l 1067 243 q 1113 193 1096 225 q 1129 126 1129 161 l 1129 126 l 1129 0 z "},"":{"ha":1389,"x_min":204,"x_max":1183,"o":"m 963 0 l 425 0 q 314 30 364 0 q 234 110 264 60 q 204 221 204 160 l 204 221 l 204 758 q 234 869 204 819 q 314 949 264 919 q 425 979 364 979 l 425 979 l 963 979 q 1074 949 1024 979 q 1153 869 1124 919 q 1183 758 1183 819 l 1183 758 l 1183 221 q 1153 110 1183 160 q 1074 30 1124 60 q 963 0 1024 0 l 963 0 z m 676 178 l 676 178 q 685 180 681 178 q 694 183 689 182 l 694 183 q 738 208 707 189 q 809 253 769 226 q 887 312 849 281 q 951 372 925 343 l 951 372 q 1021 535 1021 453 l 1021 535 q 977 669 1021 608 q 859 765 933 729 q 694 801 785 801 l 694 801 q 531 765 606 801 q 413 669 457 729 q 368 535 368 608 l 368 535 q 403 415 368 469 q 501 322 439 360 q 640 274 563 285 l 640 274 q 658 269 649 272 q 669 258 667 265 l 669 258 q 672 244 672 253 q 669 228 671 235 l 669 228 q 664 192 664 194 l 664 192 q 666 183 664 188 q 676 178 668 178 z m 572 451 l 481 451 q 475 458 475 451 l 475 458 l 475 600 q 481 607 475 607 l 481 607 l 504 607 q 510 600 510 607 l 510 600 l 510 488 l 572 488 q 578 481 578 488 l 578 481 l 578 458 q 572 451 578 451 l 572 451 z m 628 451 l 604 451 q 597 458 597 451 l 597 458 l 597 600 q 604 607 597 607 l 604 607 l 628 607 q 635 600 635 607 l 635 600 l 635 458 q 628 451 635 451 l 628 451 z m 686 451 l 663 451 q 657 458 657 451 l 657 458 l 657 600 q 663 607 657 607 l 663 607 l 685 607 q 692 601 689 607 l 692 601 l 756 515 l 756 600 q 761 607 756 607 l 761 607 l 786 607 q 792 600 792 607 l 792 600 l 792 458 q 786 451 792 451 l 786 451 l 763 451 q 756 456 758 451 l 756 456 l 692 542 l 692 458 q 686 451 692 451 l 686 451 z m 911 451 l 821 451 q 814 458 814 451 l 814 458 l 814 600 q 821 607 814 607 l 821 607 l 911 607 q 918 600 918 607 l 918 600 l 918 578 q 911 569 918 569 l 911 569 l 850 569 l 850 546 l 911 546 q 918 540 918 546 l 918 540 l 918 517 q 911 511 918 511 l 911 511 l 850 511 l 850 488 l 911 488 q 918 481 918 488 l 918 481 l 918 458 q 911 451 918 451 l 911 451 z "},"":{"ha":2022,"x_min":225,"x_max":1797,"o":"m 974 204 l 892 204 q 869 225 869 204 l 869 225 l 869 732 q 892 753 869 753 l 892 753 l 971 753 q 996 740 988 753 l 996 740 l 1222 431 l 1222 732 q 1243 753 1222 753 l 1243 753 l 1328 753 q 1343 747 1336 753 q 1350 732 1350 742 l 1350 732 l 1350 225 q 1343 210 1350 215 q 1328 204 1336 204 l 1328 204 l 1246 204 q 1221 217 1229 204 l 1221 217 l 994 526 l 994 225 q 974 204 994 204 l 974 204 z m 572 204 l 247 204 q 232 210 239 204 q 225 225 225 215 l 225 225 l 225 732 q 232 747 225 742 q 247 753 239 753 l 247 753 l 331 753 q 353 732 353 753 l 353 732 l 353 331 l 572 331 q 594 308 594 331 l 594 308 l 594 225 q 572 204 594 204 l 572 204 z m 768 204 l 686 204 q 665 225 665 204 l 665 225 l 665 732 q 686 753 665 753 l 686 753 l 768 753 q 790 732 790 753 l 790 732 l 790 225 q 768 204 790 204 l 768 204 z m 1775 204 l 1450 204 q 1435 210 1442 204 q 1428 225 1428 215 l 1428 225 l 1428 732 q 1435 747 1428 742 q 1450 753 1442 753 l 1450 753 l 1775 753 q 1790 747 1783 753 q 1797 732 1797 742 l 1797 732 l 1797 649 q 1790 633 1797 639 q 1775 628 1783 628 l 1775 628 l 1553 628 l 1553 542 l 1775 542 q 1790 535 1783 542 q 1797 521 1797 529 l 1797 521 l 1797 436 q 1790 422 1797 428 q 1775 415 1783 415 l 1775 415 l 1553 415 l 1553 331 l 1775 331 q 1790 324 1783 331 q 1797 308 1797 318 l 1797 308 l 1797 225 q 1790 210 1797 215 q 1775 204 1783 204 l 1775 204 z "},"":{"ha":1553,"x_min":69,"x_max":1483,"o":"m 246 308 l 246 308 q 119 358 169 308 q 69 486 69 407 l 69 486 q 119 613 69 564 q 246 663 169 663 l 246 663 q 374 613 324 663 q 424 486 424 564 l 424 486 q 374 358 424 407 q 246 308 324 308 z m 779 329 l 575 329 q 569 335 569 329 l 569 335 l 569 636 q 575 643 569 643 l 575 643 l 622 643 q 628 636 628 643 l 628 636 l 628 385 l 779 385 q 783 379 783 385 l 783 379 l 783 335 q 779 329 783 329 l 779 329 z m 874 329 l 828 329 q 822 335 822 329 l 822 335 l 822 636 q 828 643 822 643 l 828 643 l 874 643 q 879 636 879 643 l 879 636 l 879 335 q 874 329 879 329 l 874 329 z m 996 329 l 951 329 q 946 335 946 329 l 946 335 l 946 636 q 951 643 946 643 l 951 643 l 1000 643 q 1007 639 1004 643 l 1007 639 l 1147 424 l 1147 636 q 1153 643 1147 643 l 1153 643 l 1196 643 q 1201 636 1201 643 l 1201 636 l 1201 335 q 1196 329 1201 329 l 1196 329 l 1149 329 q 1142 333 1144 329 l 1142 333 l 1001 550 l 1001 335 q 996 329 1001 329 l 996 329 z m 1476 329 l 1274 329 q 1268 335 1268 329 l 1268 335 l 1268 636 q 1274 643 1268 643 l 1274 643 l 1472 643 q 1478 636 1478 643 l 1478 636 l 1478 593 q 1472 588 1478 588 l 1472 588 l 1325 588 l 1325 517 l 1458 517 q 1463 511 1463 517 l 1463 511 l 1463 468 q 1458 464 1463 464 l 1458 464 l 1325 464 l 1325 383 l 1476 383 q 1483 378 1483 383 l 1483 378 l 1483 335 q 1476 329 1483 329 l 1476 329 z m 246 340 l 246 340 q 350 381 311 340 q 389 486 389 422 l 389 486 q 350 590 389 549 q 246 631 311 631 l 246 631 q 142 590 182 631 q 103 486 103 549 l 103 486 q 142 381 103 422 q 246 340 182 340 z m 247 390 l 247 390 q 179 417 204 390 q 154 486 154 443 l 154 486 q 179 554 154 528 q 246 581 204 581 l 246 581 q 297 569 275 581 q 329 529 319 557 l 329 529 q 325 522 331 525 l 325 522 l 296 514 q 288 518 292 513 l 288 518 q 249 540 272 540 l 249 540 q 213 524 225 540 q 200 486 200 508 l 200 486 q 213 447 200 464 q 250 431 225 431 l 250 431 q 289 454 281 431 l 289 454 q 296 458 290 460 l 296 458 l 328 450 q 332 443 333 449 l 332 443 q 299 403 322 417 q 247 390 275 390 z "}}}
